<?xml version="1.0" encoding="utf-8" ?>
<svg baseProfile="tiny" height="1024" version="1.2" width="4224" xmlns="http://www.w3.org/2000/svg" xmlns:ev="http://www.w3.org/2001/xml-events" xmlns:xlink="http://www.w3.org/1999/xlink"><defs /><path d="M 647.0 759.5 L 646.0 759.5 L 645.0 759.5 L 644.0 759.5 L 643.0 759.5 L 642.0 759.5 L 641.0 759.5 L 640.0 759.5 L 639.0 759.5 L 638.0 759.5 L 637.0 759.5 L 636.0 759.5 L 635.0 759.5 L 634.0 759.5 L 633.0 759.5 L 632.0 759.5 L 631.0 759.5 L 630.0 759.5 L 629.0 759.5 L 628.0 759.5 L 627.0 759.5 L 626.0 759.5 L 625.0 759.5 L 624.0 759.5 L 623.0 759.5 L 622.0 759.5 L 621.0 759.5 L 620.0 759.5 L 619.0 759.5 L 618.0 759.5 L 617.0 759.5 L 616.0 759.5 L 615.0 759.5 L 614.0 759.5 L 613.0 759.5 L 612.0 759.5 L 611.0 759.5 L 610.0 759.5 L 609.0 759.5 L 608.0 759.5 L 607.0 759.5 L 606.0 759.5 L 605.0 759.5 L 604.0 759.5 L 603.0 759.5 L 602.0 759.5 L 601.0 759.5 L 600.0 759.5 L 599.0 759.5 L 598.0 759.5 L 597.0 759.5 L 596.0 759.5 L 595.0 759.5 L 594.0 759.5 L 593.0 759.5 L 592.0 759.5 L 591.0 759.5 L 590.0 759.5 L 589.0 759.5 L 588.0 759.5 L 587.0 759.5 L 586.0 759.5 L 585.0 759.5 L 584.0 759.5 L 583.0 759.5 L 582.0 759.5 L 581.0 759.5 L 580.0 759.5 L 579.0 759.5 L 578.0 759.5 L 577.0 759.5 L 576.0 759.5 L 575.0 759.5 L 574.0 759.5 L 573.0 759.5 L 572.0 759.5 L 571.0 759.5 L 570.0 759.5 L 569.0 759.5 L 568.0 759.5 L 567.0 759.5 L 566.0 759.5 L 565.0 759.5 L 564.0 759.5 L 563.5 759.0 L 563.0 758.5 L 562.0 758.5 L 561.0 758.5 L 560.0 758.5 L 559.5 758.0 L 559.0 757.5 L 558.0 757.5 L 557.5 757.0 L 557.0 756.5 L 556.0 756.5 L 555.5 756.0 L 555.0 755.5 L 554.5 755.0 L 554.0 754.5 L 553.0 754.5 L 552.5 754.0 L 552.0 753.5 L 551.5 753.0 L 551.0 752.5 L 550.5 752.0 L 550.5 751.0 L 550.0 750.5 L 549.5 750.0 L 549.0 749.5 L 548.5 749.0 L 548.5 748.0 L 548.0 747.5 L 547.5 747.0 L 547.5 746.0 L 547.5 745.0 L 547.0 744.5 L 546.5 744.0 L 546.5 743.0 L 546.5 742.0 L 546.5 741.0 L 546.5 740.0 L 546.5 739.0 L 546.5 738.0 L 546.5 737.0 L 546.5 736.0 L 546.5 735.0 L 546.5 734.0 L 546.5 733.0 L 546.5 732.0 L 546.5 731.0 L 546.5 730.0 L 546.5 729.0 L 546.5 728.0 L 546.5 727.0 L 546.5 726.0 L 546.5 725.0 L 546.5 724.0 L 546.5 723.0 L 546.5 722.0 L 546.5 721.0 L 546.5 720.0 L 546.5 719.0 L 546.5 718.0 L 546.5 717.0 L 546.5 716.0 L 546.5 715.0 L 546.5 714.0 L 546.5 713.0 L 546.5 712.0 L 546.5 711.0 L 547.0 710.5 L 547.5 710.0 L 547.5 709.0 L 548.0 708.5 L 548.5 708.0 L 548.5 707.0 L 549.0 706.5 L 549.5 706.0 L 549.5 705.0 L 550.0 704.5 L 550.5 704.0 L 551.0 703.5 L 551.5 703.0 L 552.0 702.5 L 552.5 702.0 L 553.0 701.5 L 553.5 701.0 L 554.0 700.5 L 555.0 700.5 L 555.5 700.0 L 556.0 699.5 L 557.0 699.5 L 557.5 699.0 L 558.0 698.5 L 559.0 698.5 L 560.0 698.5 L 561.0 698.5 L 562.0 698.5 L 562.5 698.0 L 563.0 697.5 L 564.0 697.5 L 565.0 697.5 L 566.0 697.5 L 567.0 697.5 L 568.0 697.5 L 569.0 697.5 L 570.0 697.5 L 571.0 697.5 L 572.0 697.5 L 573.0 697.5 L 574.0 697.5 L 575.0 697.5 L 576.0 697.5 L 577.0 697.5 L 578.0 697.5 L 579.0 697.5 L 580.0 697.5 L 581.0 697.5 L 582.0 697.5 L 583.0 697.5 L 584.0 697.5 L 585.0 697.5 L 586.0 697.5 L 587.0 697.5 L 588.0 697.5 L 589.0 697.5 L 590.0 697.5 L 591.0 697.5 L 592.0 697.5 L 593.0 697.5 L 594.0 697.5 L 595.0 697.5 L 596.0 697.5 L 597.0 697.5 L 598.0 697.5 L 599.0 697.5 L 600.0 697.5 L 601.0 697.5 L 602.0 697.5 L 603.0 697.5 L 604.0 697.5 L 605.0 697.5 L 606.0 697.5 L 607.0 697.5 L 608.0 697.5 L 609.0 697.5 L 610.0 697.5 L 611.0 697.5 L 612.0 697.5 L 613.0 697.5 L 614.0 697.5 L 615.0 697.5 L 616.0 697.5 L 617.0 697.5 L 618.0 697.5 L 619.0 697.5 L 620.0 697.5 L 621.0 697.5 L 621.5 697.0 L 622.0 696.5 L 623.0 696.5 L 624.0 696.5 L 625.0 696.5 L 625.5 696.0 L 626.0 695.5 L 627.0 695.5 L 628.0 695.5 L 628.5 695.0 L 629.0 694.5 L 630.0 694.5 L 630.5 694.0 L 631.0 693.5 L 631.5 693.0 L 632.0 692.5 L 633.0 692.5 L 633.5 692.0 L 634.0 691.5 L 634.5 691.0 L 635.0 690.5 L 635.5 690.0 L 636.0 689.5 L 636.5 689.0 L 637.0 688.5 L 637.5 688.0 L 638.0 687.5 L 638.5 687.0 L 639.0 686.5 L 639.5 686.0 L 639.5 685.0 L 640.0 684.5 L 640.5 684.0 L 641.0 683.5 L 641.5 683.0 L 641.5 682.0 L 642.0 681.5 L 642.5 681.0 L 642.5 680.0 L 643.0 679.5 L 643.5 679.0 L 644.0 678.5 L 644.5 678.0 L 644.5 677.0 L 645.0 676.5 L 645.5 676.0 L 645.5 675.0 L 646.0 674.5 L 646.5 674.0 L 647.0 673.5 L 647.5 673.0 L 647.5 672.0 L 648.0 671.5 L 648.5 671.0 L 648.5 670.0 L 649.0 669.5 L 649.5 669.0 L 650.0 668.5 L 650.5 668.0 L 650.5 667.0 L 651.0 666.5 L 651.5 666.0 L 651.5 665.0 L 652.0 664.5 L 652.5 664.0 L 653.0 663.5 L 653.5 663.0 L 653.5 662.0 L 654.0 661.5 L 654.5 661.0 L 654.5 660.0 L 655.0 659.5 L 655.5 659.0 L 656.0 658.5 L 656.5 658.0 L 656.5 657.0 L 657.0 656.5 L 657.5 656.0 L 657.5 655.0 L 658.0 654.5 L 658.5 654.0 L 659.0 653.5 L 659.5 653.0 L 659.5 652.0 L 660.0 651.5 L 660.5 651.0 L 661.0 650.5 L 661.5 650.0 L 661.5 649.0 L 662.0 648.5 L 662.5 648.0 L 662.5 647.0 L 663.0 646.5 L 663.5 646.0 L 664.0 645.5 L 664.5 645.0 L 664.5 644.0 L 665.0 643.5 L 665.5 643.0 L 665.5 642.0 L 666.0 641.5 L 666.5 641.0 L 666.5 640.0 L 667.0 639.5 L 667.5 639.0 L 668.0 638.5 L 668.5 638.0 L 668.5 637.0 L 669.0 636.5 L 669.5 636.0 L 670.0 635.5 L 670.5 635.0 L 670.5 634.0 L 671.0 633.5 L 671.5 633.0 L 671.5 632.0 L 672.0 631.5 L 672.5 631.0 L 673.0 630.5 L 673.5 630.0 L 673.5 629.0 L 674.0 628.5 L 674.5 628.0 L 674.5 627.0 L 675.0 626.5 L 675.5 626.0 L 676.0 625.5 L 676.5 625.0 L 676.5 624.0 L 677.0 623.5 L 677.5 623.0 L 678.0 622.5 L 678.5 622.0 L 678.5 621.0 L 679.0 620.5 L 679.5 620.0 L 679.5 619.0 L 680.0 618.5 L 680.5 618.0 L 681.0 617.5 L 681.5 617.0 L 681.5 616.0 L 682.0 615.5 L 682.5 615.0 L 682.5 614.0 L 683.0 613.5 L 683.5 613.0 L 684.0 612.5 L 684.5 612.0 L 684.5 611.0 L 685.0 610.5 L 685.5 610.0 L 685.5 609.0 L 686.0 608.5 L 686.5 608.0 L 687.0 607.5 L 687.5 607.0 L 687.5 606.0 L 688.0 605.5 L 688.5 605.0 L 689.0 604.5 L 689.5 604.0 L 689.5 603.0 L 690.0 602.5 L 690.5 602.0 L 690.5 601.0 L 691.0 600.5 L 691.5 600.0 L 692.0 599.5 L 692.5 599.0 L 692.5 598.0 L 693.0 597.5 L 693.5 597.0 L 693.5 596.0 L 694.0 595.5 L 694.5 595.0 L 695.0 594.5 L 695.5 594.0 L 695.5 593.0 L 696.0 592.5 L 696.5 592.0 L 696.5 591.0 L 697.0 590.5 L 697.5 590.0 L 698.0 589.5 L 698.5 589.0 L 698.5 588.0 L 699.0 587.5 L 699.5 587.0 L 699.5 586.0 L 700.0 585.5 L 700.5 585.0 L 701.0 584.5 L 701.5 584.0 L 701.5 583.0 L 702.0 582.5 L 702.5 582.0 L 702.5 581.0 L 703.0 580.5 L 703.5 580.0 L 704.0 579.5 L 704.5 579.0 L 704.5 578.0 L 705.0 577.5 L 705.5 577.0 L 706.0 576.5 L 706.5 576.0 L 706.5 575.0 L 707.0 574.5 L 707.5 574.0 L 707.5 573.0 L 708.0 572.5 L 708.5 572.0 L 709.0 571.5 L 709.5 571.0 L 709.5 570.0 L 710.0 569.5 L 710.5 569.0 L 710.5 568.0 L 711.0 567.5 L 711.5 567.0 L 712.0 566.5 L 712.5 566.0 L 712.5 565.0 L 713.0 564.5 L 713.5 564.0 L 713.5 563.0 L 714.0 562.5 L 714.5 562.0 L 715.0 561.5 L 715.5 561.0 L 715.5 560.0 L 716.0 559.5 L 716.5 559.0 L 716.5 558.0 L 717.0 557.5 L 717.5 557.0 L 718.0 556.5 L 718.5 556.0 L 718.5 555.0 L 719.0 554.5 L 719.5 554.0 L 719.5 553.0 L 720.0 552.5 L 720.5 552.0 L 721.0 551.5 L 721.5 551.0 L 721.5 550.0 L 722.0 549.5 L 722.5 549.0 L 723.0 548.5 L 723.5 548.0 L 723.5 547.0 L 724.0 546.5 L 724.5 546.0 L 724.5 545.0 L 725.0 544.5 L 725.5 544.0 L 726.0 543.5 L 726.5 543.0 L 726.5 542.0 L 727.0 541.5 L 727.5 541.0 L 727.5 540.0 L 728.0 539.5 L 728.5 539.0 L 729.0 538.5 L 729.5 538.0 L 729.5 537.0 L 730.0 536.5 L 730.5 536.0 L 730.5 535.0 L 731.0 534.5 L 731.5 534.0 L 732.0 533.5 L 732.5 533.0 L 732.5 532.0 L 733.0 531.5 L 733.5 531.0 L 734.0 530.5 L 734.5 530.0 L 734.5 529.0 L 735.0 528.5 L 735.5 528.0 L 735.5 527.0 L 736.0 526.5 L 736.5 526.0 L 737.0 525.5 L 737.5 525.0 L 737.5 524.0 L 737.5 523.0 L 738.0 522.5 L 738.5 522.0 L 738.5 521.0 L 739.0 520.5 L 739.5 520.0 L 739.5 519.0 L 739.5 518.0 L 739.5 517.0 L 740.0 516.5 L 740.5 516.0 L 740.5 515.0 L 740.5 514.0 L 740.5 513.0 L 740.5 512.0 L 740.5 511.0 L 740.5 510.0 L 740.5 509.0 L 740.5 508.0 L 740.5 507.0 L 740.5 506.0 L 740.0 505.5 L 739.5 505.0 L 739.5 504.0 L 739.5 503.0 L 739.5 502.0 L 739.0 501.5 L 738.5 501.0 L 738.5 500.0 L 738.0 499.5 L 737.5 499.0 L 737.5 498.0 L 737.0 497.5 L 736.5 497.0 L 736.5 496.0 L 736.0 495.5 L 735.5 495.0 L 735.5 494.0 L 735.0 493.5 L 734.5 493.0 L 734.5 492.0 L 734.0 491.5 L 733.5 491.0 L 733.0 490.5 L 732.5 490.0 L 732.5 489.0 L 732.0 488.5 L 731.5 488.0 L 731.5 487.0 L 731.0 486.5 L 730.5 486.0 L 730.0 485.5 L 729.5 485.0 L 729.5 484.0 L 729.0 483.5 L 728.5 483.0 L 728.5 482.0 L 728.0 481.5 L 727.5 481.0 L 727.0 480.5 L 726.5 480.0 L 726.5 479.0 L 726.0 478.5 L 725.5 478.0 L 725.0 477.5 L 724.5 477.0 L 724.5 476.0 L 724.0 475.5 L 723.5 475.0 L 723.5 474.0 L 723.0 473.5 L 722.5 473.0 L 722.0 472.5 L 721.5 472.0 L 721.5 471.0 L 721.0 470.5 L 720.5 470.0 L 720.5 469.0 L 720.0 468.5 L 719.5 468.0 L 719.0 467.5 L 718.5 467.0 L 718.5 466.0 L 718.0 465.5 L 717.5 465.0 L 717.5 464.0 L 717.0 463.5 L 716.5 463.0 L 716.0 462.5 L 715.5 462.0 L 715.5 461.0 L 715.0 460.5 L 714.5 460.0 L 714.5 459.0 L 714.0 458.5 L 713.5 458.0 L 713.0 457.5 L 712.5 457.0 L 712.5 456.0 L 712.0 455.5 L 711.5 455.0 L 711.5 454.0 L 711.0 453.5 L 710.5 453.0 L 710.0 452.5 L 709.5 452.0 L 709.5 451.0 L 709.0 450.5 L 708.5 450.0 L 708.5 449.0 L 708.0 448.5 L 707.5 448.0 L 707.0 447.5 L 706.5 447.0 L 706.5 446.0 L 706.0 445.5 L 705.5 445.0 L 705.5 444.0 L 705.0 443.5 L 704.5 443.0 L 704.0 442.5 L 703.5 442.0 L 703.5 441.0 L 703.0 440.5 L 702.5 440.0 L 702.5 439.0 L 702.0 438.5 L 701.5 438.0 L 701.0 437.5 L 700.5 437.0 L 700.5 436.0 L 700.0 435.5 L 699.5 435.0 L 699.0 434.5 L 698.5 434.0 L 698.5 433.0 L 698.0 432.5 L 697.5 432.0 L 697.5 431.0 L 697.0 430.5 L 696.5 430.0 L 696.0 429.5 L 695.5 429.0 L 695.5 428.0 L 695.0 427.5 L 694.5 427.0 L 694.0 426.5 L 693.5 426.0 L 693.5 425.0 L 693.0 424.5 L 692.5 424.0 L 692.5 423.0 L 692.0 422.5 L 691.5 422.0 L 691.0 421.5 L 690.5 421.0 L 690.5 420.0 L 690.0 419.5 L 689.5 419.0 L 689.5 418.0 L 689.0 417.5 L 688.5 417.0 L 688.0 416.5 L 687.5 416.0 L 687.5 415.0 L 687.0 414.5 L 686.5 414.0 L 686.5 413.0 L 686.0 412.5 L 685.5 412.0 L 685.0 411.5 L 684.5 411.0 L 684.5 410.0 L 684.0 409.5 L 683.5 409.0 L 683.5 408.0 L 683.0 407.5 L 682.5 407.0 L 682.0 406.5 L 681.5 406.0 L 681.5 405.0 L 681.0 404.5 L 680.5 404.0 L 680.0 403.5 L 679.5 403.0 L 679.5 402.0 L 679.0 401.5 L 678.5 401.0 L 678.5 400.0 L 678.0 399.5 L 677.5 399.0 L 677.5 398.0 L 677.0 397.5 L 676.5 397.0 L 676.0 396.5 L 675.5 396.0 L 675.5 395.0 L 675.0 394.5 L 674.5 394.0 L 674.0 393.5 L 673.5 393.0 L 673.5 392.0 L 673.0 391.5 L 672.5 391.0 L 672.5 390.0 L 672.0 389.5 L 671.5 389.0 L 671.0 388.5 L 670.5 388.0 L 670.5 387.0 L 670.0 386.5 L 669.5 386.0 L 669.5 385.0 L 669.0 384.5 L 668.5 384.0 L 668.0 383.5 L 667.5 383.0 L 667.5 382.0 L 667.0 381.5 L 666.5 381.0 L 666.5 380.0 L 666.0 379.5 L 665.5 379.0 L 665.0 378.5 L 664.5 378.0 L 664.5 377.0 L 664.0 376.5 L 663.5 376.0 L 663.5 375.0 L 663.0 374.5 L 662.5 374.0 L 662.0 373.5 L 661.5 373.0 L 661.5 372.0 L 661.0 371.5 L 660.5 371.0 L 660.5 370.0 L 660.0 369.5 L 659.5 369.0 L 659.0 368.5 L 658.5 368.0 L 658.5 367.0 L 658.0 366.5 L 657.5 366.0 L 657.0 365.5 L 656.5 365.0 L 656.5 364.0 L 656.0 363.5 L 655.5 363.0 L 655.5 362.0 L 655.0 361.5 L 654.5 361.0 L 654.0 360.5 L 653.5 360.0 L 653.5 359.0 L 653.0 358.5 L 652.5 358.0 L 652.5 357.0 L 652.0 356.5 L 651.5 356.0 L 651.0 355.5 L 650.5 355.0 L 650.5 354.0 L 650.0 353.5 L 649.5 353.0 L 649.5 352.0 L 649.0 351.5 L 648.5 351.0 L 648.0 350.5 L 647.5 350.0 L 647.5 349.0 L 647.0 348.5 L 646.5 348.0 L 646.0 347.5 L 645.5 347.0 L 645.5 346.0 L 645.0 345.5 L 644.5 345.0 L 644.5 344.0 L 644.0 343.5 L 643.5 343.0 L 643.0 342.5 L 642.5 342.0 L 642.5 341.0 L 642.0 340.5 L 641.5 340.0 L 641.5 339.0 L 641.0 338.5 L 640.5 338.0 L 640.5 337.0 L 640.0 336.5 L 639.5 336.0 L 639.0 335.5 L 638.5 335.0 L 638.5 334.0 L 638.0 333.5 L 637.5 333.0 L 637.0 332.5 L 636.5 332.0 L 636.5 331.0 L 636.0 330.5 L 635.5 330.0 L 635.0 329.5 L 634.5 329.0 L 634.0 328.5 L 633.5 328.0 L 633.5 327.0 L 633.0 326.5 L 632.0 326.5 L 631.5 326.0 L 631.0 325.5 L 630.5 325.0 L 630.0 324.5 L 629.5 324.0 L 629.0 323.5 L 628.5 323.0 L 628.0 322.5 L 627.0 322.5 L 626.5 322.0 L 626.0 321.5 L 625.0 321.5 L 624.0 321.5 L 623.5 321.0 L 623.0 320.5 L 622.0 320.5 L 621.0 320.5 L 620.5 320.0 L 620.0 319.5 L 619.0 319.5 L 618.0 319.5 L 617.0 319.5 L 616.0 319.5 L 615.0 319.5 L 614.5 319.0 L 614.0 318.5 L 613.0 318.5 L 612.0 318.5 L 611.0 318.5 L 610.0 318.5 L 609.0 318.5 L 608.0 318.5 L 607.0 318.5 L 606.0 318.5 L 605.0 318.5 L 604.5 319.0 L 604.0 319.5 L 603.0 319.5 L 602.0 319.5 L 601.0 319.5 L 600.0 319.5 L 599.5 320.0 L 599.0 320.5 L 598.0 320.5 L 597.0 320.5 L 596.5 321.0 L 596.0 321.5 L 595.0 321.5 L 594.5 322.0 L 594.0 322.5 L 593.0 322.5 L 592.5 323.0 L 592.0 323.5 L 591.5 324.0 L 591.0 324.5 L 590.5 325.0 L 590.0 325.5 L 589.5 326.0 L 589.0 326.5 L 588.5 327.0 L 588.0 327.5 L 587.5 328.0 L 587.5 329.0 L 587.0 329.5 L 586.5 330.0 L 586.0 330.5 L 585.5 331.0 L 585.5 332.0 L 585.0 332.5 L 584.5 333.0 L 584.5 334.0 L 584.5 335.0 L 584.0 335.5 L 583.5 336.0 L 583.5 337.0 L 583.5 338.0 L 583.0 338.5 L 582.5 339.0 L 582.5 340.0 L 582.5 341.0 L 582.5 342.0 L 582.0 342.5 L 581.5 343.0 L 581.5 344.0 L 581.5 345.0 L 581.0 345.5 L 580.5 346.0 L 580.5 347.0 L 580.5 348.0 L 580.5 349.0 L 580.0 349.5 L 579.5 350.0 L 579.5 351.0 L 579.5 352.0 L 579.0 352.5 L 578.5 353.0 L 578.5 354.0 L 578.5 355.0 L 578.5 356.0 L 578.0 356.5 L 577.5 357.0 L 577.5 358.0 L 577.5 359.0 L 577.0 359.5 L 576.5 360.0 L 576.5 361.0 L 576.5 362.0 L 576.5 363.0 L 576.0 363.5 L 575.5 364.0 L 575.5 365.0 L 575.5 366.0 L 575.0 366.5 L 574.5 367.0 L 574.5 368.0 L 574.5 369.0 L 574.0 369.5 L 573.5 370.0 L 573.5 371.0 L 573.5 372.0 L 573.5 373.0 L 573.0 373.5 L 572.5 374.0 L 572.5 375.0 L 572.5 376.0 L 572.5 377.0 L 572.0 377.5 L 571.5 378.0 L 571.5 379.0 L 571.5 380.0 L 571.0 380.5 L 570.5 381.0 L 570.5 382.0 L 570.5 383.0 L 570.5 384.0 L 570.0 384.5 L 569.5 385.0 L 569.5 386.0 L 569.5 387.0 L 569.0 387.5 L 568.5 388.0 L 568.5 389.0 L 568.5 390.0 L 568.5 391.0 L 568.0 391.5 L 567.5 392.0 L 567.5 393.0 L 567.5 394.0 L 567.0 394.5 L 566.5 395.0 L 566.5 396.0 L 566.5 397.0 L 566.0 397.5 L 565.5 398.0 L 565.5 399.0 L 565.5 400.0 L 565.5 401.0 L 565.0 401.5 L 564.5 402.0 L 564.5 403.0 L 564.5 404.0 L 564.5 405.0 L 564.0 405.5 L 563.5 406.0 L 563.5 407.0 L 563.5 408.0 L 563.0 408.5 L 562.5 409.0 L 562.5 410.0 L 562.5 411.0 L 562.5 412.0 L 562.0 412.5 L 561.5 413.0 L 561.5 414.0 L 561.5 415.0 L 561.0 415.5 L 560.5 416.0 L 560.5 417.0 L 560.5 418.0 L 560.0 418.5 L 559.5 419.0 L 559.5 420.0 L 559.5 421.0 L 559.5 422.0 L 559.0 422.5 L 558.5 423.0 L 558.5 424.0 L 558.5 425.0 L 558.5 426.0 L 558.0 426.5 L 557.5 427.0 L 557.5 428.0 L 557.5 429.0 L 557.0 429.5 L 556.5 430.0 L 556.5 431.0 L 556.5 432.0 L 556.5 433.0 L 556.0 433.5 L 555.5 434.0 L 555.5 435.0 L 555.5 436.0 L 555.0 436.5 L 554.5 437.0 L 554.5 438.0 L 554.5 439.0 L 554.5 440.0 L 554.0 440.5 L 553.5 441.0 L 553.5 442.0 L 553.5 443.0 L 553.0 443.5 L 552.5 444.0 L 552.5 445.0 L 552.5 446.0 L 552.5 447.0 L 552.0 447.5 L 551.5 448.0 L 551.5 449.0 L 551.5 450.0 L 551.5 451.0 L 551.0 451.5 L 550.5 452.0 L 550.5 453.0 L 550.5 454.0 L 550.0 454.5 L 549.5 455.0 L 549.5 456.0 L 549.5 457.0 L 549.0 457.5 L 548.5 458.0 L 548.5 459.0 L 548.5 460.0 L 548.5 461.0 L 548.0 461.5 L 547.5 462.0 L 547.5 463.0 L 547.5 464.0 L 547.0 464.5 L 546.5 465.0 L 546.5 466.0 L 546.5 467.0 L 546.5 468.0 L 546.0 468.5 L 545.5 469.0 L 545.5 470.0 L 545.5 471.0 L 545.5 472.0 L 545.0 472.5 L 544.5 473.0 L 544.5 474.0 L 544.5 475.0 L 544.0 475.5 L 543.5 476.0 L 543.5 477.0 L 543.5 478.0 L 543.5 479.0 L 543.0 479.5 L 542.5 480.0 L 542.5 481.0 L 542.5 482.0 L 542.0 482.5 L 541.5 483.0 L 541.5 484.0 L 541.5 485.0 L 541.5 486.0 L 541.0 486.5 L 540.5 487.0 L 540.5 488.0 L 540.5 489.0 L 540.5 490.0 L 540.0 490.5 L 539.5 491.0 L 539.5 492.0 L 539.5 493.0 L 539.0 493.5 L 538.5 494.0 L 538.5 495.0 L 538.5 496.0 L 538.5 497.0 L 538.0 497.5 L 537.5 498.0 L 537.5 499.0 L 537.5 500.0 L 537.0 500.5 L 536.5 501.0 L 536.5 502.0 L 536.5 503.0 L 536.5 504.0 L 536.0 504.5 L 535.5 505.0 L 535.5 506.0 L 535.5 507.0 L 535.5 508.0 L 535.0 508.5 L 534.5 509.0 L 534.5 510.0 L 534.5 511.0 L 534.0 511.5 L 533.5 512.0 L 533.5 513.0 L 533.5 514.0 L 533.5 515.0 L 533.0 515.5 L 532.5 516.0 L 532.5 517.0 L 532.5 518.0 L 532.0 518.5 L 531.5 519.0 L 531.5 520.0 L 531.5 521.0 L 531.5 522.0 L 531.0 522.5 L 530.5 523.0 L 530.5 524.0 L 530.5 525.0 L 530.0 525.5 L 529.5 526.0 L 529.5 527.0 L 529.5 528.0 L 529.5 529.0 L 529.0 529.5 L 528.5 530.0 L 528.5 531.0 L 528.5 532.0 L 528.5 533.0 L 528.0 533.5 L 527.5 534.0 L 527.5 535.0 L 527.5 536.0 L 527.0 536.5 L 526.5 537.0 L 526.5 538.0 L 526.5 539.0 L 526.5 540.0 L 526.0 540.5 L 525.5 541.0 L 525.5 542.0 L 525.5 543.0 L 525.0 543.5 L 524.5 544.0 L 524.5 545.0 L 524.5 546.0 L 524.5 547.0 L 524.0 547.5 L 523.5 548.0 L 523.5 549.0 L 523.5 550.0 L 523.5 551.0 L 523.0 551.5 L 522.5 552.0 L 522.5 553.0 L 522.5 554.0 L 522.0 554.5 L 521.5 555.0 L 521.5 556.0 L 521.5 557.0 L 521.0 557.5 L 520.5 558.0 L 520.5 559.0 L 520.5 560.0 L 520.5 561.0 L 520.0 561.5 L 519.5 562.0 L 519.5 563.0 L 519.5 564.0 L 519.0 564.5 L 518.5 565.0 L 518.5 566.0 L 518.5 567.0 L 518.5 568.0 L 518.0 568.5 L 517.5 569.0 L 517.5 570.0 L 517.5 571.0 L 517.5 572.0 L 517.0 572.5 L 516.5 573.0 L 516.5 574.0 L 516.5 575.0 L 516.0 575.5 L 515.5 576.0 L 515.5 577.0 L 515.5 578.0 L 515.5 579.0 L 515.0 579.5 L 514.5 580.0 L 514.5 581.0 L 514.5 582.0 L 514.5 583.0 L 514.0 583.5 L 513.5 584.0 L 513.5 585.0 L 513.5 586.0 L 513.0 586.5 L 512.5 587.0 L 512.5 588.0 L 512.5 589.0 L 512.5 590.0 L 512.0 590.5 L 511.5 591.0 L 511.5 592.0 L 511.5 593.0 L 511.0 593.5 L 510.5 594.0 L 510.5 595.0 L 510.5 596.0 L 510.5 597.0 L 510.0 597.5 L 509.5 598.0 L 509.5 599.0 L 509.5 600.0 L 509.5 601.0 L 509.0 601.5 L 508.5 602.0 L 508.5 603.0 L 508.5 604.0 L 508.0 604.5 L 507.5 605.0 L 507.5 606.0 L 507.5 607.0 L 507.5 608.0 L 507.0 608.5 L 506.5 609.0 L 506.5 610.0 L 506.5 611.0 L 506.0 611.5 L 505.5 612.0 L 505.5 613.0 L 505.5 614.0 L 505.5 615.0 L 505.0 615.5 L 504.5 616.0 L 504.5 617.0 L 504.5 618.0 L 504.0 618.5 L 503.5 619.0 L 503.5 620.0 L 503.5 621.0 L 503.5 622.0 L 503.0 622.5 L 502.5 623.0 L 502.5 624.0 L 502.5 625.0 L 502.0 625.5 L 501.5 626.0 L 501.5 627.0 L 501.5 628.0 L 501.5 629.0 L 501.0 629.5 L 500.5 630.0 L 500.5 631.0 L 500.5 632.0 L 500.0 632.5 L 499.5 633.0 L 499.5 634.0 L 499.5 635.0 L 499.5 636.0 L 499.0 636.5 L 498.5 637.0 L 498.5 638.0 L 498.5 639.0 L 498.5 640.0 L 498.0 640.5 L 497.5 641.0 L 497.5 642.0 L 497.5 643.0 L 497.0 643.5 L 496.5 644.0 L 496.5 645.0 L 496.5 646.0 L 496.5 647.0 L 496.0 647.5 L 495.5 648.0 L 495.5 649.0 L 495.5 650.0 L 495.0 650.5 L 494.5 651.0 L 494.5 652.0 L 494.5 653.0 L 494.5 654.0 L 494.0 654.5 L 493.5 655.0 L 493.5 656.0 L 493.5 657.0 L 493.0 657.5 L 492.5 658.0 L 492.5 659.0 L 492.5 660.0 L 492.5 661.0 L 492.0 661.5 L 491.5 662.0 L 491.5 663.0 L 491.5 664.0 L 491.5 665.0 L 491.0 665.5 L 490.5 666.0 L 490.5 667.0 L 490.5 668.0 L 490.0 668.5 L 489.5 669.0 L 489.5 670.0 L 489.5 671.0 L 489.5 672.0 L 489.0 672.5 L 488.5 673.0 L 488.5 674.0 L 488.5 675.0 L 488.0 675.5 L 487.5 676.0 L 487.5 677.0 L 487.5 678.0 L 487.5 679.0 L 487.0 679.5 L 486.5 680.0 L 486.5 681.0 L 486.5 682.0 L 486.0 682.5 L 485.5 683.0 L 485.5 684.0 L 485.5 685.0 L 485.5 686.0 L 485.0 686.5 L 484.5 687.0 L 484.5 688.0 L 484.5 689.0 L 484.0 689.5 L 483.5 690.0 L 483.5 691.0 L 483.5 692.0 L 483.5 693.0 L 483.0 693.5 L 482.5 694.0 L 482.5 695.0 L 482.5 696.0 L 482.0 696.5 L 481.5 697.0 L 481.5 698.0 L 481.5 699.0 L 481.5 700.0 L 481.0 700.5 L 480.5 701.0 L 480.5 702.0 L 480.5 703.0 L 480.5 704.0 L 480.0 704.5 L 479.5 705.0 L 479.5 706.0 L 479.5 707.0 L 479.0 707.5 L 478.5 708.0 L 478.5 709.0 L 478.5 710.0 L 478.5 711.0 L 478.0 711.5 L 477.5 712.0 L 477.5 713.0 L 477.5 714.0 L 477.0 714.5 L 476.5 715.0 L 476.5 716.0 L 476.5 717.0 L 476.5 718.0 L 476.0 718.5 L 475.5 719.0 L 475.5 720.0 L 475.5 721.0 L 475.5 722.0 L 475.0 722.5 L 474.5 723.0 L 474.5 724.0 L 474.5 725.0 L 474.0 725.5 L 473.5 726.0 L 473.5 727.0 L 473.5 728.0 L 473.0 728.5 L 472.5 729.0 L 472.5 730.0 L 472.5 731.0 L 472.5 732.0 L 472.0 732.5 L 471.5 733.0 L 471.5 734.0 L 471.5 735.0 L 471.0 735.5 L 470.5 736.0 L 470.5 737.0 L 470.5 738.0 L 470.0 738.5 L 469.5 739.0 L 469.5 740.0 L 469.0 740.5 L 468.5 741.0 L 468.0 741.5 L 467.5 742.0 L 467.5 743.0 L 467.0 743.5 L 466.5 744.0 L 466.0 744.5 L 465.5 745.0 L 465.0 745.5 L 464.5 746.0 L 464.0 746.5 L 463.5 747.0 L 463.5 748.0 L 463.0 748.5 L 462.5 749.0 L 462.0 749.5 L 461.5 750.0 L 461.0 750.5 L 460.0 750.5 L 459.5 751.0 L 459.0 751.5 L 458.5 752.0 L 458.0 752.5 L 457.0 752.5 L 456.5 753.0 L 456.0 753.5 L 455.5 754.0 L 455.0 754.5 L 454.0 754.5 L 453.5 755.0 L 453.0 755.5 L 452.0 755.5 L 451.5 756.0 L 451.0 756.5 L 450.0 756.5 L 449.0 756.5 L 448.5 757.0 L 448.0 757.5 L 447.0 757.5 L 446.0 757.5 L 445.5 758.0 L 445.0 758.5 L 444.0 758.5 L 443.0 758.5 L 442.0 758.5 L 441.0 758.5 L 440.5 759.0 L 440.0 759.5 L 439.0 759.5 L 438.0 759.5 L 437.0 759.5 L 436.0 759.5 L 435.0 759.5 L 434.0 759.5 L 433.0 759.5 L 432.0 759.5 L 431.0 759.5 L 430.0 759.5 L 429.0 759.5 L 428.0 759.5 L 427.0 759.5 L 426.0 759.5 L 425.0 759.5 L 424.0 759.5 L 423.0 759.5 L 422.0 759.5 L 421.0 759.5 L 420.0 759.5 L 419.0 759.5 L 418.0 759.5 L 417.0 759.5 L 416.0 759.5 L 415.0 759.5 L 414.0 759.5 L 413.0 759.5 L 412.0 759.5 L 411.0 759.5 L 410.0 759.5 L 409.0 759.5 L 408.0 759.5 L 407.0 759.5 L 406.0 759.5 L 405.0 759.5 L 404.0 759.5 L 403.0 759.5 L 402.0 759.5 L 401.0 759.5 L 400.0 759.5 L 399.0 759.5 L 398.0 759.5 L 397.0 759.5 L 396.0 759.5 L 395.0 759.5 L 394.0 759.5 L 393.0 759.5 L 392.0 759.5 L 391.0 759.5 L 390.0 759.5 L 389.0 759.5 L 388.0 759.5 L 387.0 759.5 L 386.0 759.5 L 385.0 759.5 L 384.0 759.5 L 383.0 759.5 L 382.0 759.5 L 381.0 759.5 L 380.0 759.5 L 379.0 759.5 L 378.0 759.5 L 377.0 759.5 L 376.5 759.0 L 376.0 758.5 L 375.0 758.5 L 374.0 758.5 L 373.0 758.5 L 372.0 758.5 L 371.0 758.5 L 370.5 758.0 L 370.0 757.5 L 369.0 757.5 L 368.0 757.5 L 367.5 757.0 L 367.0 756.5 L 366.0 756.5 L 365.0 756.5 L 364.5 756.0 L 364.0 755.5 L 363.0 755.5 L 362.5 755.0 L 362.0 754.5 L 361.0 754.5 L 360.5 754.0 L 360.0 753.5 L 359.0 753.5 L 358.5 753.0 L 358.0 752.5 L 357.0 752.5 L 356.5 752.0 L 356.0 751.5 L 355.5 751.0 L 355.0 750.5 L 354.0 750.5 L 353.5 750.0 L 353.0 749.5 L 352.5 749.0 L 352.0 748.5 L 351.5 748.0 L 351.0 747.5 L 350.5 747.0 L 350.0 746.5 L 349.5 746.0 L 349.0 745.5 L 348.5 745.0 L 348.0 744.5 L 347.5 744.0 L 347.0 743.5 L 346.5 743.0 L 346.5 742.0 L 346.0 741.5 L 345.5 741.0 L 345.0 740.5 L 344.5 740.0 L 344.5 739.0 L 344.0 738.5 L 343.5 738.0 L 343.0 737.5 L 342.5 737.0 L 342.5 736.0 L 342.0 735.5 L 341.5 735.0 L 341.5 734.0 L 341.0 733.5 L 340.5 733.0 L 340.0 732.5 L 339.5 732.0 L 339.5 731.0 L 339.0 730.5 L 338.5 730.0 L 338.0 729.5 L 337.5 729.0 L 337.5 728.0 L 337.0 727.5 L 336.5 727.0 L 336.5 726.0 L 336.0 725.5 L 335.5 725.0 L 335.0 724.5 L 334.5 724.0 L 334.5 723.0 L 334.0 722.5 L 333.5 722.0 L 333.0 721.5 L 332.5 721.0 L 332.5 720.0 L 332.0 719.5 L 331.5 719.0 L 331.5 718.0 L 331.0 717.5 L 330.5 717.0 L 330.0 716.5 L 329.5 716.0 L 329.5 715.0 L 329.0 714.5 L 328.5 714.0 L 328.5 713.0 L 328.0 712.5 L 327.5 712.0 L 327.0 711.5 L 326.5 711.0 L 326.5 710.0 L 326.0 709.5 L 325.5 709.0 L 325.0 708.5 L 324.5 708.0 L 324.5 707.0 L 324.0 706.5 L 323.5 706.0 L 323.5 705.0 L 323.0 704.5 L 322.5 704.0 L 322.0 703.5 L 321.5 703.0 L 321.5 702.0 L 321.0 701.5 L 320.5 701.0 L 320.0 700.5 L 319.5 700.0 L 319.5 699.0 L 319.0 698.5 L 318.5 698.0 L 318.5 697.0 L 318.0 696.5 L 317.5 696.0 L 317.5 695.0 L 317.0 694.5 L 316.5 694.0 L 316.0 693.5 L 315.5 693.0 L 315.5 692.0 L 315.0 691.5 L 314.5 691.0 L 314.0 690.5 L 313.5 690.0 L 313.5 689.0 L 313.0 688.5 L 312.5 688.0 L 312.0 687.5 L 311.5 687.0 L 311.5 686.0 L 311.0 685.5 L 310.5 685.0 L 310.5 684.0 L 310.0 683.5 L 309.5 683.0 L 309.0 682.5 L 308.5 682.0 L 308.5 681.0 L 308.0 680.5 L 307.5 680.0 L 307.0 679.5 L 306.5 679.0 L 306.5 678.0 L 306.0 677.5 L 305.5 677.0 L 305.5 676.0 L 305.0 675.5 L 304.5 675.0 L 304.0 674.5 L 303.5 674.0 L 303.5 673.0 L 303.0 672.5 L 302.5 672.0 L 302.5 671.0 L 302.0 670.5 L 301.5 670.0 L 301.0 669.5 L 300.5 669.0 L 300.5 668.0 L 300.0 667.5 L 299.5 667.0 L 299.0 666.5 L 298.5 666.0 L 298.5 665.0 L 298.0 664.5 L 297.5 664.0 L 297.5 663.0 L 297.0 662.5 L 296.5 662.0 L 296.0 661.5 L 295.5 661.0 L 295.5 660.0 L 295.0 659.5 L 294.5 659.0 L 294.5 658.0 L 294.0 657.5 L 293.5 657.0 L 293.0 656.5 L 292.5 656.0 L 292.5 655.0 L 292.0 654.5 L 291.5 654.0 L 291.0 653.5 L 290.5 653.0 L 290.5 652.0 L 290.0 651.5 L 289.5 651.0 L 289.5 650.0 L 289.0 649.5 L 288.5 649.0 L 288.0 648.5 L 287.5 648.0 L 287.5 647.0 L 287.0 646.5 L 286.5 646.0 L 286.5 645.0 L 286.0 644.5 L 285.5 644.0 L 285.0 643.5 L 284.5 643.0 L 284.5 642.0 L 284.0 641.5 L 283.5 641.0 L 283.5 640.0 L 283.0 639.5 L 282.5 639.0 L 282.0 638.5 L 281.5 638.0 L 281.5 637.0 L 281.0 636.5 L 280.5 636.0 L 280.0 635.5 L 279.5 635.0 L 279.5 634.0 L 279.0 633.5 L 278.5 633.0 L 278.5 632.0 L 278.0 631.5 L 277.5 631.0 L 277.0 630.5 L 276.5 630.0 L 276.5 629.0 L 276.0 628.5 L 275.5 628.0 L 275.0 627.5 L 274.5 627.0 L 274.5 626.0 L 274.0 625.5 L 273.5 625.0 L 273.5 624.0 L 273.0 623.5 L 272.5 623.0 L 272.0 622.5 L 271.5 622.0 L 271.5 621.0 L 271.0 620.5 L 270.5 620.0 L 270.5 619.0 L 270.0 618.5 L 269.5 618.0 L 269.0 617.5 L 268.5 617.0 L 268.5 616.0 L 268.0 615.5 L 267.5 615.0 L 267.0 614.5 L 266.5 614.0 L 266.5 613.0 L 266.0 612.5 L 265.5 612.0 L 265.5 611.0 L 265.0 610.5 L 264.5 610.0 L 264.0 609.5 L 263.5 609.0 L 263.5 608.0 L 263.0 607.5 L 262.5 607.0 L 262.0 606.5 L 261.5 606.0 L 261.5 605.0 L 261.0 604.5 L 260.5 604.0 L 260.5 603.0 L 260.0 602.5 L 259.5 602.0 L 259.0 601.5 L 258.5 601.0 L 258.5 600.0 L 258.0 599.5 L 257.5 599.0 L 257.0 598.5 L 256.5 598.0 L 256.5 597.0 L 256.0 596.5 L 255.5 596.0 L 255.5 595.0 L 255.0 594.5 L 254.5 594.0 L 254.0 593.5 L 253.5 593.0 L 253.5 592.0 L 253.0 591.5 L 252.5 591.0 L 252.5 590.0 L 252.0 589.5 L 251.5 589.0 L 251.0 588.5 L 250.5 588.0 L 250.5 587.0 L 250.0 586.5 L 249.5 586.0 L 249.5 585.0 L 249.0 584.5 L 248.5 584.0 L 248.0 583.5 L 247.5 583.0 L 247.5 582.0 L 247.0 581.5 L 246.5 581.0 L 246.0 580.5 L 245.5 580.0 L 245.5 579.0 L 245.0 578.5 L 244.5 578.0 L 244.5 577.0 L 244.0 576.5 L 243.5 576.0 L 243.0 575.5 L 242.5 575.0 L 242.5 574.0 L 242.0 573.5 L 241.5 573.0 L 241.5 572.0 L 241.0 571.5 L 240.5 571.0 L 240.0 570.5 L 239.5 570.0 L 239.5 569.0 L 239.0 568.5 L 238.5 568.0 L 238.0 567.5 L 237.5 567.0 L 237.5 566.0 L 237.0 565.5 L 236.5 565.0 L 236.0 564.5 L 235.5 564.0 L 235.5 563.0 L 235.0 562.5 L 234.5 562.0 L 234.5 561.0 L 234.0 560.5 L 233.5 560.0 L 233.0 559.5 L 232.5 559.0 L 232.5 558.0 L 232.0 557.5 L 231.5 557.0 L 231.0 556.5 L 230.5 556.0 L 230.5 555.0 L 230.0 554.5 L 229.5 554.0 L 229.5 553.0 L 229.0 552.5 L 228.5 552.0 L 228.0 551.5 L 227.5 551.0 L 227.5 550.0 L 227.0 549.5 L 226.5 549.0 L 226.5 548.0 L 226.0 547.5 L 225.5 547.0 L 225.0 546.5 L 224.5 546.0 L 224.5 545.0 L 224.0 544.5 L 223.5 544.0 L 223.0 543.5 L 222.5 543.0 L 222.5 542.0 L 222.0 541.5 L 221.5 541.0 L 221.5 540.0 L 221.0 539.5 L 220.5 539.0 L 220.0 538.5 L 219.5 538.0 L 219.5 537.0 L 219.0 536.5 L 218.5 536.0 L 218.0 535.5 L 217.5 535.0 L 217.5 534.0 L 217.0 533.5 L 216.5 533.0 L 216.5 532.0 L 216.0 531.5 L 215.5 531.0 L 215.5 530.0 L 215.0 529.5 L 214.5 529.0 L 214.5 528.0 L 214.0 527.5 L 213.5 527.0 L 213.5 526.0 L 213.0 525.5 L 212.5 525.0 L 212.5 524.0 L 212.5 523.0 L 212.5 522.0 L 212.0 521.5 L 211.5 521.0 L 211.5 520.0 L 211.5 519.0 L 211.5 518.0 L 211.0 517.5 L 210.5 517.0 L 210.5 516.0 L 210.5 515.0 L 210.5 514.0 L 210.5 513.0 L 210.5 512.0 L 210.5 511.0 L 210.5 510.0 L 210.5 509.0 L 210.5 508.0 L 210.5 507.0 L 210.5 506.0 L 211.0 505.5 L 211.5 505.0 L 211.5 504.0 L 211.5 503.0 L 211.5 502.0 L 211.5 501.0 L 212.0 500.5 L 212.5 500.0 L 212.5 499.0 L 212.5 498.0 L 213.0 497.5 L 213.5 497.0 L 213.5 496.0 L 214.0 495.5 L 214.5 495.0 L 214.5 494.0 L 215.0 493.5 L 215.5 493.0 L 215.5 492.0 L 216.0 491.5 L 216.5 491.0 L 216.5 490.0 L 217.0 489.5 L 217.5 489.0 L 217.5 488.0 L 218.0 487.5 L 218.5 487.0 L 218.5 486.0 L 219.0 485.5 L 219.5 485.0 L 220.0 484.5 L 220.5 484.0 L 220.5 483.0 L 221.0 482.5 L 221.5 482.0 L 222.0 481.5 L 222.5 481.0 L 222.5 480.0 L 223.0 479.5 L 223.5 479.0 L 224.0 478.5 L 224.5 478.0 L 224.5 477.0 L 225.0 476.5 L 225.5 476.0 L 225.5 475.0 L 226.0 474.5 L 226.5 474.0 L 227.0 473.5 L 227.5 473.0 L 227.5 472.0 L 228.0 471.5 L 228.5 471.0 L 228.5 470.0 L 229.0 469.5 L 229.5 469.0 L 230.0 468.5 L 230.5 468.0 L 230.5 467.0 L 231.0 466.5 L 231.5 466.0 L 231.5 465.0 L 232.0 464.5 L 232.5 464.0 L 233.0 463.5 L 233.5 463.0 L 233.5 462.0 L 234.0 461.5 L 234.5 461.0 L 235.0 460.5 L 235.5 460.0 L 235.5 459.0 L 236.0 458.5 L 236.5 458.0 L 236.5 457.0 L 237.0 456.5 L 237.5 456.0 L 238.0 455.5 L 238.5 455.0 L 238.5 454.0 L 239.0 453.5 L 239.5 453.0 L 239.5 452.0 L 240.0 451.5 L 240.5 451.0 L 241.0 450.5 L 241.5 450.0 L 241.5 449.0 L 242.0 448.5 L 242.5 448.0 L 243.0 447.5 L 243.5 447.0 L 243.5 446.0 L 244.0 445.5 L 244.5 445.0 L 244.5 444.0 L 245.0 443.5 L 245.5 443.0 L 246.0 442.5 L 246.5 442.0 L 246.5 441.0 L 247.0 440.5 L 247.5 440.0 L 247.5 439.0 L 248.0 438.5 L 248.5 438.0 L 249.0 437.5 L 249.5 437.0 L 249.5 436.0 L 250.0 435.5 L 250.5 435.0 L 251.0 434.5 L 251.5 434.0 L 251.5 433.0 L 252.0 432.5 L 252.5 432.0 L 252.5 431.0 L 253.0 430.5 L 253.5 430.0 L 254.0 429.5 L 254.5 429.0 L 254.5 428.0 L 255.0 427.5 L 255.5 427.0 L 255.5 426.0 L 256.0 425.5 L 256.5 425.0 L 257.0 424.5 L 257.5 424.0 L 257.5 423.0 L 258.0 422.5 L 258.5 422.0 L 258.5 421.0 L 259.0 420.5 L 259.5 420.0 L 260.0 419.5 L 260.5 419.0 L 260.5 418.0 L 261.0 417.5 L 261.5 417.0 L 262.0 416.5 L 262.5 416.0 L 262.5 415.0 L 263.0 414.5 L 263.5 414.0 L 263.5 413.0 L 264.0 412.5 L 264.5 412.0 L 265.0 411.5 L 265.5 411.0 L 265.5 410.0 L 266.0 409.5 L 266.5 409.0 L 267.0 408.5 L 267.5 408.0 L 267.5 407.0 L 268.0 406.5 L 268.5 406.0 L 268.5 405.0 L 269.0 404.5 L 269.5 404.0 L 269.5 403.0 L 270.0 402.5 L 270.5 402.0 L 271.0 401.5 L 271.5 401.0 L 271.5 400.0 L 272.0 399.5 L 272.5 399.0 L 273.0 398.5 L 273.5 398.0 L 273.5 397.0 L 274.0 396.5 L 274.5 396.0 L 274.5 395.0 L 275.0 394.5 L 275.5 394.0 L 276.0 393.5 L 276.5 393.0 L 276.5 392.0 L 277.0 391.5 L 277.5 391.0 L 277.5 390.0 L 278.0 389.5 L 278.5 389.0 L 279.0 388.5 L 279.5 388.0 L 279.5 387.0 L 280.0 386.5 L 280.5 386.0 L 281.0 385.5 L 281.5 385.0 L 281.5 384.0 L 282.0 383.5 L 282.5 383.0 L 282.5 382.0 L 283.0 381.5 L 283.5 381.0 L 284.0 380.5 L 284.5 380.0 L 284.5 379.0 L 285.0 378.5 L 285.5 378.0 L 285.5 377.0 L 286.0 376.5 L 286.5 376.0 L 287.0 375.5 L 287.5 375.0 L 287.5 374.0 L 288.0 373.5 L 288.5 373.0 L 288.5 372.0 L 289.0 371.5 L 289.5 371.0 L 290.0 370.5 L 290.5 370.0 L 290.5 369.0 L 291.0 368.5 L 291.5 368.0 L 291.5 367.0 L 292.0 366.5 L 292.5 366.0 L 293.0 365.5 L 293.5 365.0 L 293.5 364.0 L 294.0 363.5 L 294.5 363.0 L 295.0 362.5 L 295.5 362.0 L 295.5 361.0 L 296.0 360.5 L 296.5 360.0 L 296.5 359.0 L 297.0 358.5 L 297.5 358.0 L 298.0 357.5 L 298.5 357.0 L 298.5 356.0 L 299.0 355.5 L 299.5 355.0 L 300.0 354.5 L 300.5 354.0 L 300.5 353.0 L 301.0 352.5 L 301.5 352.0 L 301.5 351.0 L 302.0 350.5 L 302.5 350.0 L 303.0 349.5 L 303.5 349.0 L 303.5 348.0 L 304.0 347.5 L 304.5 347.0 L 304.5 346.0 L 305.0 345.5 L 305.5 345.0 L 306.0 344.5 L 306.5 344.0 L 306.5 343.0 L 307.0 342.5 L 307.5 342.0 L 307.5 341.0 L 308.0 340.5 L 308.5 340.0 L 309.0 339.5 L 309.5 339.0 L 309.5 338.0 L 310.0 337.5 L 310.5 337.0 L 311.0 336.5 L 311.5 336.0 L 311.5 335.0 L 312.0 334.5 L 312.5 334.0 L 313.0 333.5 L 313.5 333.0 L 313.5 332.0 L 314.0 331.5 L 314.5 331.0 L 314.5 330.0 L 315.0 329.5 L 315.5 329.0 L 316.0 328.5 L 316.5 328.0 L 316.5 327.0 L 317.0 326.5 L 317.5 326.0 L 317.5 325.0 L 318.0 324.5 L 318.5 324.0 L 319.0 323.5 L 319.5 323.0 L 319.5 322.0 L 320.0 321.5 L 320.5 321.0 L 320.5 320.0 L 321.0 319.5 L 321.5 319.0 L 322.0 318.5 L 322.5 318.0 L 322.5 317.0 L 323.0 316.5 L 323.5 316.0 L 324.0 315.5 L 324.5 315.0 L 324.5 314.0 L 325.0 313.5 L 325.5 313.0 L 325.5 312.0 L 326.0 311.5 L 326.5 311.0 L 327.0 310.5 L 327.5 310.0 L 327.5 309.0 L 328.0 308.5 L 328.5 308.0 L 328.5 307.0 L 329.0 306.5 L 329.5 306.0 L 330.0 305.5 L 330.5 305.0 L 330.5 304.0 L 331.0 303.5 L 331.5 303.0 L 332.0 302.5 L 332.5 302.0 L 332.5 301.0 L 333.0 300.5 L 333.5 300.0 L 333.5 299.0 L 334.0 298.5 L 334.5 298.0 L 335.0 297.5 L 335.5 297.0 L 335.5 296.0 L 336.0 295.5 L 336.5 295.0 L 336.5 294.0 L 337.0 293.5 L 337.5 293.0 L 338.0 292.5 L 338.5 292.0 L 338.5 291.0 L 339.0 290.5 L 339.5 290.0 L 339.5 289.0 L 340.0 288.5 L 340.5 288.0 L 341.0 287.5 L 341.5 287.0 L 341.5 286.0 L 342.0 285.5 L 342.5 285.0 L 343.0 284.5 L 343.5 284.0 L 343.5 283.0 L 344.0 282.5 L 344.5 282.0 L 344.5 281.0 L 345.0 280.5 L 345.5 280.0 L 345.5 279.0 L 346.0 278.5 L 346.5 278.0 L 347.0 277.5 L 347.5 277.0 L 347.5 276.0 L 348.0 275.5 L 348.5 275.0 L 349.0 274.5 L 349.5 274.0 L 350.0 273.5 L 350.5 273.0 L 351.0 272.5 L 351.5 272.0 L 352.0 271.5 L 352.5 271.0 L 353.0 270.5 L 353.5 270.0 L 354.0 269.5 L 354.5 269.0 L 355.0 268.5 L 355.5 268.0 L 356.0 267.5 L 357.0 267.5 L 357.5 267.0 L 358.0 266.5 L 358.5 266.0 L 359.0 265.5 L 360.0 265.5 L 360.5 265.0 L 361.0 264.5 L 362.0 264.5 L 362.5 264.0 L 363.0 263.5 L 364.0 263.5 L 364.5 263.0 L 365.0 262.5 L 366.0 262.5 L 366.5 262.0 L 367.0 261.5 L 368.0 261.5 L 369.0 261.5 L 369.5 261.0 L 370.0 260.5 L 371.0 260.5 L 372.0 260.5 L 373.0 260.5 L 374.0 260.5 L 375.0 260.5 L 375.5 260.0 L 376.0 259.5 L 377.0 259.5 L 378.0 259.5 L 379.0 259.5 L 380.0 259.5 L 381.0 259.5 L 382.0 259.5 L 383.0 259.5 L 384.0 259.5 L 385.0 259.5 L 386.0 259.5 L 387.0 259.5 L 388.0 259.5 L 389.0 259.5 L 390.0 259.5 L 391.0 259.5 L 392.0 259.5 L 393.0 259.5 L 394.0 259.5 L 395.0 259.5 L 396.0 259.5 L 397.0 259.5 L 398.0 259.5 L 399.0 259.5 L 400.0 259.5 L 401.0 259.5 L 402.0 259.5 L 403.0 259.5 L 404.0 259.5 L 405.0 259.5 L 406.0 259.5 L 407.0 259.5 L 408.0 259.5 L 409.0 259.5 L 410.0 259.5 L 411.0 259.5 L 412.0 259.5 L 413.0 259.5 L 414.0 259.5 L 415.0 259.5 L 416.0 259.5 L 417.0 259.5 L 418.0 259.5 L 419.0 259.5 L 420.0 259.5 L 421.0 259.5 L 422.0 259.5 L 423.0 259.5 L 424.0 259.5 L 425.0 259.5 L 426.0 259.5 L 427.0 259.5 L 428.0 259.5 L 429.0 259.5 L 430.0 259.5 L 431.0 259.5 L 432.0 259.5 L 433.0 259.5 L 434.0 259.5 L 435.0 259.5 L 436.0 259.5 L 437.0 259.5 L 438.0 259.5 L 439.0 259.5 L 440.0 259.5 L 441.0 259.5 L 442.0 259.5 L 443.0 259.5 L 444.0 259.5 L 445.0 259.5 L 446.0 259.5 L 447.0 259.5 L 448.0 259.5 L 449.0 259.5 L 450.0 259.5 L 451.0 259.5 L 452.0 259.5 L 453.0 259.5 L 454.0 259.5 L 455.0 259.5 L 456.0 259.5 L 457.0 259.5 L 458.0 259.5 L 459.0 259.5 L 460.0 259.5 L 461.0 259.5 L 461.5 260.0 L 462.0 260.5 L 463.0 260.5 L 464.0 260.5 L 464.5 261.0 L 465.0 261.5 L 466.0 261.5 L 466.5 262.0 L 467.0 262.5 L 468.0 262.5 L 468.5 263.0 L 469.0 263.5 L 469.5 264.0 L 470.0 264.5 L 470.5 265.0 L 471.0 265.5 L 471.5 266.0 L 472.0 266.5 L 472.5 267.0 L 473.0 267.5 L 473.5 268.0 L 473.5 269.0 L 474.0 269.5 L 474.5 270.0 L 474.5 271.0 L 475.0 271.5 L 475.5 272.0 L 475.5 273.0 L 475.5 274.0 L 475.5 275.0 L 475.5 276.0 L 476.0 276.5 L 476.5 277.0 L 476.5 278.0 L 476.0 278.5 L 475.5 279.0 L 475.5 280.0 L 475.5 281.0 L 475.5 282.0 L 475.5 283.0 L 475.5 284.0 L 475.5 285.0 L 475.5 286.0 L 475.5 287.0 L 475.5 288.0 L 475.5 289.0 L 475.5 290.0 L 475.5 291.0 L 475.5 292.0 L 475.5 293.0 L 475.5 294.0 L 475.5 295.0 L 475.5 296.0 L 475.5 297.0 L 475.5 298.0 L 475.5 299.0 L 475.5 300.0 L 475.5 301.0 L 475.5 302.0 L 475.5 303.0 L 475.5 304.0 L 475.5 305.0 L 475.5 306.0 L 475.5 307.0 L 475.5 308.0 L 475.0 308.5 L 474.5 309.0 L 474.5 310.0 L 474.0 310.5 L 473.5 311.0 L 473.5 312.0 L 473.0 312.5 L 472.5 313.0 L 472.0 313.5 L 471.5 314.0 L 471.0 314.5 L 470.5 315.0 L 470.0 315.5 L 469.5 316.0 L 469.0 316.5 L 468.5 317.0 L 468.0 317.5 L 467.0 317.5 L 466.5 318.0 L 466.0 318.5 L 465.0 318.5 L 464.5 319.0 L 464.0 319.5 L 463.0 319.5 L 462.0 319.5 L 461.0 319.5 L 460.0 319.5 L 459.0 319.5 L 458.0 319.5 L 457.0 319.5 L 456.0 319.5 L 455.0 319.5 L 454.0 319.5 L 453.0 319.5 L 452.0 319.5 L 451.0 319.5 L 450.0 319.5 L 449.0 319.5 L 448.0 319.5 L 447.0 319.5 L 446.0 319.5 L 445.0 319.5 L 444.0 319.5 L 443.0 319.5 L 442.0 319.5 L 441.0 319.5 L 440.0 319.5 L 439.0 319.5 L 438.0 319.5 L 437.0 319.5 L 436.0 319.5 L 435.0 319.5 L 434.0 319.5 L 433.0 319.5 L 432.0 319.5 L 431.0 319.5 L 430.0 319.5 L 429.0 319.5 L 428.0 319.5 L 427.0 319.5 L 426.0 319.5 L 425.0 319.5 L 424.0 319.5 L 423.0 319.5 L 422.0 319.5 L 421.0 319.5 L 420.0 319.5 L 419.0 319.5 L 418.0 319.5 L 417.0 319.5 L 416.0 319.5 L 415.0 319.5 L 414.0 319.5 L 413.0 319.5 L 412.0 319.5 L 411.0 319.5 L 410.0 319.5 L 409.0 319.5 L 408.0 319.5 L 407.0 319.5 L 406.0 319.5 L 405.0 319.5 L 404.0 319.5 L 403.0 319.5 L 402.5 320.0 L 402.0 320.5 L 401.0 320.5 L 400.0 320.5 L 399.5 321.0 L 399.0 321.5 L 398.0 321.5 L 397.5 322.0 L 397.0 322.5 L 396.0 322.5 L 395.5 323.0 L 395.0 323.5 L 394.0 323.5 L 393.5 324.0 L 393.0 324.5 L 392.5 325.0 L 392.0 325.5 L 391.5 326.0 L 391.0 326.5 L 390.5 327.0 L 390.0 327.5 L 389.5 328.0 L 389.0 328.5 L 388.5 329.0 L 388.5 330.0 L 388.0 330.5 L 387.5 331.0 L 387.0 331.5 L 386.5 332.0 L 386.5 333.0 L 386.0 333.5 L 385.5 334.0 L 385.0 334.5 L 384.5 335.0 L 384.5 336.0 L 384.0 336.5 L 383.5 337.0 L 383.5 338.0 L 383.0 338.5 L 382.5 339.0 L 382.5 340.0 L 382.0 340.5 L 381.5 341.0 L 381.0 341.5 L 380.5 342.0 L 380.5 343.0 L 380.0 343.5 L 379.5 344.0 L 379.5 345.0 L 379.0 345.5 L 378.5 346.0 L 378.0 346.5 L 377.5 347.0 L 377.5 348.0 L 377.0 348.5 L 376.5 349.0 L 376.5 350.0 L 376.0 350.5 L 375.5 351.0 L 375.0 351.5 L 374.5 352.0 L 374.5 353.0 L 374.0 353.5 L 373.5 354.0 L 373.0 354.5 L 372.5 355.0 L 372.5 356.0 L 372.0 356.5 L 371.5 357.0 L 371.5 358.0 L 371.0 358.5 L 370.5 359.0 L 370.0 359.5 L 369.5 360.0 L 369.5 361.0 L 369.0 361.5 L 368.5 362.0 L 368.0 362.5 L 367.5 363.0 L 367.5 364.0 L 367.0 364.5 L 366.5 365.0 L 366.5 366.0 L 366.0 366.5 L 365.5 367.0 L 365.0 367.5 L 364.5 368.0 L 364.5 369.0 L 364.0 369.5 L 363.5 370.0 L 363.5 371.0 L 363.0 371.5 L 362.5 372.0 L 362.0 372.5 L 361.5 373.0 L 361.5 374.0 L 361.0 374.5 L 360.5 375.0 L 360.5 376.0 L 360.0 376.5 L 359.5 377.0 L 359.0 377.5 L 358.5 378.0 L 358.5 379.0 L 358.0 379.5 L 357.5 380.0 L 357.0 380.5 L 356.5 381.0 L 356.5 382.0 L 356.0 382.5 L 355.5 383.0 L 355.5 384.0 L 355.0 384.5 L 354.5 385.0 L 354.0 385.5 L 353.5 386.0 L 353.5 387.0 L 353.0 387.5 L 352.5 388.0 L 352.5 389.0 L 352.0 389.5 L 351.5 390.0 L 351.0 390.5 L 350.5 391.0 L 350.5 392.0 L 350.0 392.5 L 349.5 393.0 L 349.0 393.5 L 348.5 394.0 L 348.5 395.0 L 348.0 395.5 L 347.5 396.0 L 347.5 397.0 L 347.0 397.5 L 346.5 398.0 L 346.0 398.5 L 345.5 399.0 L 345.5 400.0 L 345.0 400.5 L 344.5 401.0 L 344.5 402.0 L 344.0 402.5 L 343.5 403.0 L 343.0 403.5 L 342.5 404.0 L 342.5 405.0 L 342.0 405.5 L 341.5 406.0 L 341.5 407.0 L 341.0 407.5 L 340.5 408.0 L 340.0 408.5 L 339.5 409.0 L 339.5 410.0 L 339.0 410.5 L 338.5 411.0 L 338.0 411.5 L 337.5 412.0 L 337.5 413.0 L 337.0 413.5 L 336.5 414.0 L 336.5 415.0 L 336.0 415.5 L 335.5 416.0 L 335.0 416.5 L 334.5 417.0 L 334.5 418.0 L 334.0 418.5 L 333.5 419.0 L 333.5 420.0 L 333.0 420.5 L 332.5 421.0 L 332.0 421.5 L 331.5 422.0 L 331.5 423.0 L 331.0 423.5 L 330.5 424.0 L 330.5 425.0 L 330.0 425.5 L 329.5 426.0 L 329.0 426.5 L 328.5 427.0 L 328.5 428.0 L 328.0 428.5 L 327.5 429.0 L 327.5 430.0 L 327.0 430.5 L 326.5 431.0 L 326.0 431.5 L 325.5 432.0 L 325.5 433.0 L 325.0 433.5 L 324.5 434.0 L 324.5 435.0 L 324.0 435.5 L 323.5 436.0 L 323.0 436.5 L 322.5 437.0 L 322.5 438.0 L 322.0 438.5 L 321.5 439.0 L 321.0 439.5 L 320.5 440.0 L 320.5 441.0 L 320.0 441.5 L 319.5 442.0 L 319.5 443.0 L 319.0 443.5 L 318.5 444.0 L 318.0 444.5 L 317.5 445.0 L 317.5 446.0 L 317.0 446.5 L 316.5 447.0 L 316.5 448.0 L 316.0 448.5 L 315.5 449.0 L 315.0 449.5 L 314.5 450.0 L 314.5 451.0 L 314.0 451.5 L 313.5 452.0 L 313.5 453.0 L 313.0 453.5 L 312.5 454.0 L 312.0 454.5 L 311.5 455.0 L 311.5 456.0 L 311.0 456.5 L 310.5 457.0 L 310.5 458.0 L 310.0 458.5 L 309.5 459.0 L 309.0 459.5 L 308.5 460.0 L 308.5 461.0 L 308.0 461.5 L 307.5 462.0 L 307.0 462.5 L 306.5 463.0 L 306.5 464.0 L 306.0 464.5 L 305.5 465.0 L 305.0 465.5 L 304.5 466.0 L 304.5 467.0 L 304.0 467.5 L 303.5 468.0 L 303.5 469.0 L 303.0 469.5 L 302.5 470.0 L 302.0 470.5 L 301.5 471.0 L 301.5 472.0 L 301.0 472.5 L 300.5 473.0 L 300.5 474.0 L 300.0 474.5 L 299.5 475.0 L 299.0 475.5 L 298.5 476.0 L 298.5 477.0 L 298.0 477.5 L 297.5 478.0 L 297.0 478.5 L 296.5 479.0 L 296.5 480.0 L 296.0 480.5 L 295.5 481.0 L 295.5 482.0 L 295.0 482.5 L 294.5 483.0 L 294.0 483.5 L 293.5 484.0 L 293.5 485.0 L 293.0 485.5 L 292.5 486.0 L 292.5 487.0 L 292.0 487.5 L 291.5 488.0 L 291.0 488.5 L 290.5 489.0 L 290.5 490.0 L 290.0 490.5 L 289.5 491.0 L 289.0 491.5 L 288.5 492.0 L 288.5 493.0 L 288.0 493.5 L 287.5 494.0 L 287.5 495.0 L 287.0 495.5 L 286.5 496.0 L 286.0 496.5 L 285.5 497.0 L 285.5 498.0 L 285.0 498.5 L 284.5 499.0 L 284.5 500.0 L 284.5 501.0 L 284.0 501.5 L 283.5 502.0 L 283.5 503.0 L 283.0 503.5 L 282.5 504.0 L 282.5 505.0 L 282.5 506.0 L 282.5 507.0 L 282.0 507.5 L 281.5 508.0 L 281.5 509.0 L 281.5 510.0 L 281.5 511.0 L 281.5 512.0 L 281.5 513.0 L 281.5 514.0 L 281.5 515.0 L 282.0 515.5 L 282.5 516.0 L 282.5 517.0 L 282.5 518.0 L 282.5 519.0 L 283.0 519.5 L 283.5 520.0 L 283.5 521.0 L 283.5 522.0 L 284.0 522.5 L 284.5 523.0 L 284.5 524.0 L 285.0 524.5 L 285.5 525.0 L 285.5 526.0 L 286.0 526.5 L 286.5 527.0 L 286.5 528.0 L 287.0 528.5 L 287.5 529.0 L 288.0 529.5 L 288.5 530.0 L 288.5 531.0 L 289.0 531.5 L 289.5 532.0 L 289.5 533.0 L 290.0 533.5 L 290.5 534.0 L 291.0 534.5 L 291.5 535.0 L 291.5 536.0 L 292.0 536.5 L 292.5 537.0 L 292.5 538.0 L 293.0 538.5 L 293.5 539.0 L 294.0 539.5 L 294.5 540.0 L 294.5 541.0 L 295.0 541.5 L 295.5 542.0 L 295.5 543.0 L 296.0 543.5 L 296.5 544.0 L 297.0 544.5 L 297.5 545.0 L 297.5 546.0 L 298.0 546.5 L 298.5 547.0 L 298.5 548.0 L 299.0 548.5 L 299.5 549.0 L 299.5 550.0 L 300.0 550.5 L 300.5 551.0 L 301.0 551.5 L 301.5 552.0 L 301.5 553.0 L 302.0 553.5 L 302.5 554.0 L 303.0 554.5 L 303.5 555.0 L 303.5 556.0 L 304.0 556.5 L 304.5 557.0 L 304.5 558.0 L 305.0 558.5 L 305.5 559.0 L 306.0 559.5 L 306.5 560.0 L 306.5 561.0 L 307.0 561.5 L 307.5 562.0 L 307.5 563.0 L 308.0 563.5 L 308.5 564.0 L 309.0 564.5 L 309.5 565.0 L 309.5 566.0 L 310.0 566.5 L 310.5 567.0 L 310.5 568.0 L 311.0 568.5 L 311.5 569.0 L 312.0 569.5 L 312.5 570.0 L 312.5 571.0 L 313.0 571.5 L 313.5 572.0 L 313.5 573.0 L 314.0 573.5 L 314.5 574.0 L 315.0 574.5 L 315.5 575.0 L 315.5 576.0 L 316.0 576.5 L 316.5 577.0 L 316.5 578.0 L 317.0 578.5 L 317.5 579.0 L 318.0 579.5 L 318.5 580.0 L 318.5 581.0 L 319.0 581.5 L 319.5 582.0 L 320.0 582.5 L 320.5 583.0 L 320.5 584.0 L 321.0 584.5 L 321.5 585.0 L 321.5 586.0 L 322.0 586.5 L 322.5 587.0 L 323.0 587.5 L 323.5 588.0 L 323.5 589.0 L 324.0 589.5 L 324.5 590.0 L 324.5 591.0 L 325.0 591.5 L 325.5 592.0 L 325.5 593.0 L 326.0 593.5 L 326.5 594.0 L 327.0 594.5 L 327.5 595.0 L 327.5 596.0 L 328.0 596.5 L 328.5 597.0 L 328.5 598.0 L 329.0 598.5 L 329.5 599.0 L 330.0 599.5 L 330.5 600.0 L 330.5 601.0 L 331.0 601.5 L 331.5 602.0 L 331.5 603.0 L 332.0 603.5 L 332.5 604.0 L 333.0 604.5 L 333.5 605.0 L 333.5 606.0 L 334.0 606.5 L 334.5 607.0 L 334.5 608.0 L 335.0 608.5 L 335.5 609.0 L 336.0 609.5 L 336.5 610.0 L 336.5 611.0 L 337.0 611.5 L 337.5 612.0 L 338.0 612.5 L 338.5 613.0 L 338.5 614.0 L 339.0 614.5 L 339.5 615.0 L 339.5 616.0 L 340.0 616.5 L 340.5 617.0 L 341.0 617.5 L 341.5 618.0 L 341.5 619.0 L 342.0 619.5 L 342.5 620.0 L 342.5 621.0 L 343.0 621.5 L 343.5 622.0 L 344.0 622.5 L 344.5 623.0 L 344.5 624.0 L 345.0 624.5 L 345.5 625.0 L 345.5 626.0 L 346.0 626.5 L 346.5 627.0 L 347.0 627.5 L 347.5 628.0 L 347.5 629.0 L 348.0 629.5 L 348.5 630.0 L 348.5 631.0 L 349.0 631.5 L 349.5 632.0 L 350.0 632.5 L 350.5 633.0 L 350.5 634.0 L 351.0 634.5 L 351.5 635.0 L 351.5 636.0 L 352.0 636.5 L 352.5 637.0 L 353.0 637.5 L 353.5 638.0 L 353.5 639.0 L 354.0 639.5 L 354.5 640.0 L 355.0 640.5 L 355.5 641.0 L 355.5 642.0 L 356.0 642.5 L 356.5 643.0 L 356.5 644.0 L 357.0 644.5 L 357.5 645.0 L 357.5 646.0 L 358.0 646.5 L 358.5 647.0 L 359.0 647.5 L 359.5 648.0 L 359.5 649.0 L 360.0 649.5 L 360.5 650.0 L 361.0 650.5 L 361.5 651.0 L 361.5 652.0 L 362.0 652.5 L 362.5 653.0 L 362.5 654.0 L 363.0 654.5 L 363.5 655.0 L 364.0 655.5 L 364.5 656.0 L 364.5 657.0 L 365.0 657.5 L 365.5 658.0 L 365.5 659.0 L 366.0 659.5 L 366.5 660.0 L 367.0 660.5 L 367.5 661.0 L 367.5 662.0 L 368.0 662.5 L 368.5 663.0 L 368.5 664.0 L 369.0 664.5 L 369.5 665.0 L 369.5 666.0 L 370.0 666.5 L 370.5 667.0 L 371.0 667.5 L 371.5 668.0 L 371.5 669.0 L 372.0 669.5 L 372.5 670.0 L 372.5 671.0 L 373.0 671.5 L 373.5 672.0 L 374.0 672.5 L 374.5 673.0 L 374.5 674.0 L 375.0 674.5 L 375.5 675.0 L 375.5 676.0 L 376.0 676.5 L 376.5 677.0 L 377.0 677.5 L 377.5 678.0 L 377.5 679.0 L 378.0 679.5 L 378.5 680.0 L 378.5 681.0 L 379.0 681.5 L 379.5 682.0 L 379.5 683.0 L 380.0 683.5 L 380.5 684.0 L 381.0 684.5 L 381.5 685.0 L 381.5 686.0 L 382.0 686.5 L 382.5 687.0 L 383.0 687.5 L 383.5 688.0 L 384.0 688.5 L 384.5 689.0 L 385.0 689.5 L 385.5 690.0 L 386.0 690.5 L 386.5 691.0 L 387.0 691.5 L 387.5 692.0 L 388.0 692.5 L 388.5 693.0 L 389.0 693.5 L 389.5 694.0 L 390.0 694.5 L 391.0 694.5 L 391.5 695.0 L 392.0 695.5 L 393.0 695.5 L 394.0 695.5 L 394.5 696.0 L 395.0 696.5 L 396.0 696.5 L 397.0 696.5 L 397.5 697.0 L 398.0 697.5 L 399.0 697.5 L 400.0 697.5 L 401.0 697.5 L 402.0 697.5 L 403.0 697.5 L 404.0 697.5 L 405.0 697.5 L 406.0 697.5 L 407.0 697.5 L 408.0 697.5 L 409.0 697.5 L 410.0 697.5 L 410.5 697.0 L 411.0 696.5 L 412.0 696.5 L 413.0 696.5 L 413.5 696.0 L 414.0 695.5 L 415.0 695.5 L 416.0 695.5 L 416.5 695.0 L 417.0 694.5 L 417.5 694.0 L 418.0 693.5 L 418.5 693.0 L 419.0 692.5 L 419.5 692.0 L 420.0 691.5 L 420.5 691.0 L 421.0 690.5 L 421.5 690.0 L 422.0 689.5 L 422.5 689.0 L 423.0 688.5 L 423.5 688.0 L 423.5 687.0 L 424.0 686.5 L 424.5 686.0 L 424.5 685.0 L 425.0 684.5 L 425.5 684.0 L 425.5 683.0 L 425.5 682.0 L 426.0 681.5 L 426.5 681.0 L 426.5 680.0 L 426.5 679.0 L 427.0 678.5 L 427.5 678.0 L 427.5 677.0 L 427.5 676.0 L 427.5 675.0 L 428.0 674.5 L 428.5 674.0 L 428.5 673.0 L 428.5 672.0 L 429.0 671.5 L 429.5 671.0 L 429.5 670.0 L 429.5 669.0 L 429.5 668.0 L 430.0 667.5 L 430.5 667.0 L 430.5 666.0 L 430.5 665.0 L 431.0 664.5 L 431.5 664.0 L 431.5 663.0 L 431.5 662.0 L 431.5 661.0 L 432.0 660.5 L 432.5 660.0 L 432.5 659.0 L 432.5 658.0 L 432.5 657.0 L 433.0 656.5 L 433.5 656.0 L 433.5 655.0 L 433.5 654.0 L 434.0 653.5 L 434.5 653.0 L 434.5 652.0 L 434.5 651.0 L 434.5 650.0 L 435.0 649.5 L 435.5 649.0 L 435.5 648.0 L 435.5 647.0 L 436.0 646.5 L 436.5 646.0 L 436.5 645.0 L 436.5 644.0 L 436.5 643.0 L 437.0 642.5 L 437.5 642.0 L 437.5 641.0 L 437.5 640.0 L 438.0 639.5 L 438.5 639.0 L 438.5 638.0 L 438.5 637.0 L 438.5 636.0 L 439.0 635.5 L 439.5 635.0 L 439.5 634.0 L 439.5 633.0 L 440.0 632.5 L 440.5 632.0 L 440.5 631.0 L 440.5 630.0 L 440.5 629.0 L 441.0 628.5 L 441.5 628.0 L 441.5 627.0 L 441.5 626.0 L 441.5 625.0 L 442.0 624.5 L 442.5 624.0 L 442.5 623.0 L 442.5 622.0 L 443.0 621.5 L 443.5 621.0 L 443.5 620.0 L 443.5 619.0 L 444.0 618.5 L 444.5 618.0 L 444.5 617.0 L 444.5 616.0 L 444.5 615.0 L 445.0 614.5 L 445.5 614.0 L 445.5 613.0 L 445.5 612.0 L 446.0 611.5 L 446.5 611.0 L 446.5 610.0 L 446.5 609.0 L 446.5 608.0 L 447.0 607.5 L 447.5 607.0 L 447.5 606.0 L 447.5 605.0 L 448.0 604.5 L 448.5 604.0 L 448.5 603.0 L 448.5 602.0 L 448.5 601.0 L 449.0 600.5 L 449.5 600.0 L 449.5 599.0 L 449.5 598.0 L 449.5 597.0 L 450.0 596.5 L 450.5 596.0 L 450.5 595.0 L 450.5 594.0 L 451.0 593.5 L 451.5 593.0 L 451.5 592.0 L 451.5 591.0 L 451.5 590.0 L 452.0 589.5 L 452.5 589.0 L 452.5 588.0 L 452.5 587.0 L 453.0 586.5 L 453.5 586.0 L 453.5 585.0 L 453.5 584.0 L 454.0 583.5 L 454.5 583.0 L 454.5 582.0 L 454.5 581.0 L 454.5 580.0 L 455.0 579.5 L 455.5 579.0 L 455.5 578.0 L 455.5 577.0 L 455.5 576.0 L 456.0 575.5 L 456.5 575.0 L 456.5 574.0 L 456.5 573.0 L 457.0 572.5 L 457.5 572.0 L 457.5 571.0 L 457.5 570.0 L 458.0 569.5 L 458.5 569.0 L 458.5 568.0 L 458.5 567.0 L 458.5 566.0 L 459.0 565.5 L 459.5 565.0 L 459.5 564.0 L 459.5 563.0 L 459.5 562.0 L 460.0 561.5 L 460.5 561.0 L 460.5 560.0 L 460.5 559.0 L 461.0 558.5 L 461.5 558.0 L 461.5 557.0 L 461.5 556.0 L 461.5 555.0 L 462.0 554.5 L 462.5 554.0 L 462.5 553.0 L 462.5 552.0 L 463.0 551.5 L 463.5 551.0 L 463.5 550.0 L 463.5 549.0 L 463.5 548.0 L 464.0 547.5 L 464.5 547.0 L 464.5 546.0 L 464.5 545.0 L 464.5 544.0 L 465.0 543.5 L 465.5 543.0 L 465.5 542.0 L 465.5 541.0 L 466.0 540.5 L 466.5 540.0 L 466.5 539.0 L 466.5 538.0 L 467.0 537.5 L 467.5 537.0 L 467.5 536.0 L 467.5 535.0 L 467.5 534.0 L 468.0 533.5 L 468.5 533.0 L 468.5 532.0 L 468.5 531.0 L 469.0 530.5 L 469.5 530.0 L 469.5 529.0 L 469.5 528.0 L 469.5 527.0 L 470.0 526.5 L 470.5 526.0 L 470.5 525.0 L 470.5 524.0 L 470.5 523.0 L 471.0 522.5 L 471.5 522.0 L 471.5 521.0 L 471.5 520.0 L 472.0 519.5 L 472.5 519.0 L 472.5 518.0 L 472.5 517.0 L 472.5 516.0 L 473.0 515.5 L 473.5 515.0 L 473.5 514.0 L 473.5 513.0 L 473.5 512.0 L 474.0 511.5 L 474.5 511.0 L 474.5 510.0 L 474.5 509.0 L 475.0 508.5 L 475.5 508.0 L 475.5 507.0 L 475.5 506.0 L 476.0 505.5 L 476.5 505.0 L 476.5 504.0 L 476.5 503.0 L 476.5 502.0 L 477.0 501.5 L 477.5 501.0 L 477.5 500.0 L 477.5 499.0 L 478.0 498.5 L 478.5 498.0 L 478.5 497.0 L 478.5 496.0 L 478.5 495.0 L 479.0 494.5 L 479.5 494.0 L 479.5 493.0 L 479.5 492.0 L 480.0 491.5 L 480.5 491.0 L 480.5 490.0 L 480.5 489.0 L 480.5 488.0 L 481.0 487.5 L 481.5 487.0 L 481.5 486.0 L 481.5 485.0 L 481.5 484.0 L 482.0 483.5 L 482.5 483.0 L 482.5 482.0 L 482.5 481.0 L 483.0 480.5 L 483.5 480.0 L 483.5 479.0 L 483.5 478.0 L 483.5 477.0 L 484.0 476.5 L 484.5 476.0 L 484.5 475.0 L 484.5 474.0 L 485.0 473.5 L 485.5 473.0 L 485.5 472.0 L 485.5 471.0 L 485.5 470.0 L 486.0 469.5 L 486.5 469.0 L 486.5 468.0 L 486.5 467.0 L 486.5 466.0 L 487.0 465.5 L 487.5 465.0 L 487.5 464.0 L 487.5 463.0 L 488.0 462.5 L 488.5 462.0 L 488.5 461.0 L 488.5 460.0 L 488.5 459.0 L 489.0 458.5 L 489.5 458.0 L 489.5 457.0 L 489.5 456.0 L 490.0 455.5 L 490.5 455.0 L 490.5 454.0 L 490.5 453.0 L 490.5 452.0 L 491.0 451.5 L 491.5 451.0 L 491.5 450.0 L 491.5 449.0 L 492.0 448.5 L 492.5 448.0 L 492.5 447.0 L 492.5 446.0 L 492.5 445.0 L 493.0 444.5 L 493.5 444.0 L 493.5 443.0 L 493.5 442.0 L 493.5 441.0 L 494.0 440.5 L 494.5 440.0 L 494.5 439.0 L 494.5 438.0 L 495.0 437.5 L 495.5 437.0 L 495.5 436.0 L 495.5 435.0 L 495.5 434.0 L 496.0 433.5 L 496.5 433.0 L 496.5 432.0 L 496.5 431.0 L 497.0 430.5 L 497.5 430.0 L 497.5 429.0 L 497.5 428.0 L 497.5 427.0 L 498.0 426.5 L 498.5 426.0 L 498.5 425.0 L 498.5 424.0 L 499.0 423.5 L 499.5 423.0 L 499.5 422.0 L 499.5 421.0 L 499.5 420.0 L 500.0 419.5 L 500.5 419.0 L 500.5 418.0 L 500.5 417.0 L 501.0 416.5 L 501.5 416.0 L 501.5 415.0 L 501.5 414.0 L 501.5 413.0 L 502.0 412.5 L 502.5 412.0 L 502.5 411.0 L 502.5 410.0 L 502.5 409.0 L 503.0 408.5 L 503.5 408.0 L 503.5 407.0 L 503.5 406.0 L 504.0 405.5 L 504.5 405.0 L 504.5 404.0 L 504.5 403.0 L 504.5 402.0 L 505.0 401.5 L 505.5 401.0 L 505.5 400.0 L 505.5 399.0 L 506.0 398.5 L 506.5 398.0 L 506.5 397.0 L 506.5 396.0 L 506.5 395.0 L 507.0 394.5 L 507.5 394.0 L 507.5 393.0 L 507.5 392.0 L 508.0 391.5 L 508.5 391.0 L 508.5 390.0 L 508.5 389.0 L 508.5 388.0 L 509.0 387.5 L 509.5 387.0 L 509.5 386.0 L 509.5 385.0 L 510.0 384.5 L 510.5 384.0 L 510.5 383.0 L 510.5 382.0 L 510.5 381.0 L 511.0 380.5 L 511.5 380.0 L 511.5 379.0 L 511.5 378.0 L 512.0 377.5 L 512.5 377.0 L 512.5 376.0 L 512.5 375.0 L 513.0 374.5 L 513.5 374.0 L 513.5 373.0 L 513.5 372.0 L 513.5 371.0 L 514.0 370.5 L 514.5 370.0 L 514.5 369.0 L 514.5 368.0 L 514.5 367.0 L 515.0 366.5 L 515.5 366.0 L 515.5 365.0 L 515.5 364.0 L 516.0 363.5 L 516.5 363.0 L 516.5 362.0 L 516.5 361.0 L 516.5 360.0 L 517.0 359.5 L 517.5 359.0 L 517.5 358.0 L 517.5 357.0 L 518.0 356.5 L 518.5 356.0 L 518.5 355.0 L 518.5 354.0 L 518.5 353.0 L 519.0 352.5 L 519.5 352.0 L 519.5 351.0 L 519.5 350.0 L 520.0 349.5 L 520.5 349.0 L 520.5 348.0 L 520.5 347.0 L 520.5 346.0 L 521.0 345.5 L 521.5 345.0 L 521.5 344.0 L 521.5 343.0 L 522.0 342.5 L 522.5 342.0 L 522.5 341.0 L 522.5 340.0 L 522.5 339.0 L 523.0 338.5 L 523.5 338.0 L 523.5 337.0 L 523.5 336.0 L 524.0 335.5 L 524.5 335.0 L 524.5 334.0 L 524.5 333.0 L 524.5 332.0 L 525.0 331.5 L 525.5 331.0 L 525.5 330.0 L 525.5 329.0 L 526.0 328.5 L 526.5 328.0 L 526.5 327.0 L 526.5 326.0 L 526.5 325.0 L 527.0 324.5 L 527.5 324.0 L 527.5 323.0 L 527.5 322.0 L 528.0 321.5 L 528.5 321.0 L 528.5 320.0 L 528.5 319.0 L 528.5 318.0 L 529.0 317.5 L 529.5 317.0 L 529.5 316.0 L 529.5 315.0 L 530.0 314.5 L 530.5 314.0 L 530.5 313.0 L 530.5 312.0 L 530.5 311.0 L 531.0 310.5 L 531.5 310.0 L 531.5 309.0 L 531.5 308.0 L 532.0 307.5 L 532.5 307.0 L 532.5 306.0 L 532.5 305.0 L 532.5 304.0 L 533.0 303.5 L 533.5 303.0 L 533.5 302.0 L 533.5 301.0 L 534.0 300.5 L 534.5 300.0 L 534.5 299.0 L 534.5 298.0 L 535.0 297.5 L 535.5 297.0 L 535.5 296.0 L 535.5 295.0 L 535.5 294.0 L 536.0 293.5 L 536.5 293.0 L 536.5 292.0 L 536.5 291.0 L 536.5 290.0 L 537.0 289.5 L 537.5 289.0 L 537.5 288.0 L 537.5 287.0 L 538.0 286.5 L 538.5 286.0 L 538.5 285.0 L 538.5 284.0 L 538.5 283.0 L 539.0 282.5 L 539.5 282.0 L 539.5 281.0 L 540.0 280.5 L 540.5 280.0 L 540.5 279.0 L 540.5 278.0 L 541.0 277.5 L 541.5 277.0 L 542.0 276.5 L 542.5 276.0 L 542.5 275.0 L 543.0 274.5 L 543.5 274.0 L 543.5 273.0 L 544.0 272.5 L 544.5 272.0 L 545.0 271.5 L 545.5 271.0 L 546.0 270.5 L 546.5 270.0 L 547.0 269.5 L 547.5 269.0 L 548.0 268.5 L 548.5 268.0 L 549.0 267.5 L 550.0 267.5 L 550.5 267.0 L 551.0 266.5 L 551.5 266.0 L 552.0 265.5 L 552.5 265.0 L 553.0 264.5 L 554.0 264.5 L 554.5 264.0 L 555.0 263.5 L 556.0 263.5 L 556.5 263.0 L 557.0 262.5 L 558.0 262.5 L 559.0 262.5 L 559.5 262.0 L 560.0 261.5 L 561.0 261.5 L 562.0 261.5 L 562.5 261.0 L 563.0 260.5 L 564.0 260.5 L 565.0 260.5 L 566.0 260.5 L 567.0 260.5 L 567.5 260.0 L 568.0 259.5 L 569.0 259.5 L 570.0 259.5 L 571.0 259.5 L 572.0 259.5 L 573.0 259.5 L 574.0 259.5 L 575.0 259.5 L 576.0 259.5 L 577.0 259.5 L 578.0 259.5 L 579.0 259.5 L 580.0 259.5 L 581.0 259.5 L 582.0 259.5 L 583.0 259.5 L 584.0 259.5 L 585.0 259.5 L 586.0 259.5 L 587.0 259.5 L 588.0 259.5 L 589.0 259.5 L 590.0 259.5 L 591.0 259.5 L 592.0 259.5 L 593.0 259.5 L 594.0 259.5 L 595.0 259.5 L 596.0 259.5 L 597.0 259.5 L 598.0 259.5 L 599.0 259.5 L 600.0 259.5 L 601.0 259.5 L 602.0 259.5 L 603.0 259.5 L 604.0 259.5 L 605.0 259.5 L 606.0 259.5 L 607.0 259.5 L 608.0 259.5 L 609.0 259.5 L 610.0 259.5 L 611.0 259.5 L 612.0 259.5 L 613.0 259.5 L 614.0 259.5 L 615.0 259.5 L 616.0 259.5 L 617.0 259.5 L 618.0 259.5 L 619.0 259.5 L 620.0 259.5 L 621.0 259.5 L 622.0 259.5 L 623.0 259.5 L 624.0 259.5 L 625.0 259.5 L 626.0 259.5 L 627.0 259.5 L 628.0 259.5 L 629.0 259.5 L 630.0 259.5 L 631.0 259.5 L 632.0 259.5 L 633.0 259.5 L 634.0 259.5 L 635.0 259.5 L 636.0 259.5 L 637.0 259.5 L 638.0 259.5 L 639.0 259.5 L 640.0 259.5 L 641.0 259.5 L 642.0 259.5 L 643.0 259.5 L 644.0 259.5 L 645.0 259.5 L 646.0 259.5 L 647.0 259.5 L 648.0 259.5 L 648.5 260.0 L 649.0 260.5 L 650.0 260.5 L 651.0 260.5 L 652.0 260.5 L 653.0 260.5 L 653.5 261.0 L 654.0 261.5 L 655.0 261.5 L 656.0 261.5 L 657.0 261.5 L 657.5 262.0 L 658.0 262.5 L 659.0 262.5 L 659.5 263.0 L 660.0 263.5 L 661.0 263.5 L 662.0 263.5 L 662.5 264.0 L 663.0 264.5 L 663.5 265.0 L 664.0 265.5 L 665.0 265.5 L 665.5 266.0 L 666.0 266.5 L 666.5 267.0 L 667.0 267.5 L 668.0 267.5 L 668.5 268.0 L 669.0 268.5 L 669.5 269.0 L 670.0 269.5 L 670.5 270.0 L 671.0 270.5 L 671.5 271.0 L 672.0 271.5 L 672.5 272.0 L 673.0 272.5 L 673.5 273.0 L 674.0 273.5 L 674.5 274.0 L 675.0 274.5 L 675.5 275.0 L 675.5 276.0 L 676.0 276.5 L 676.5 277.0 L 677.0 277.5 L 677.5 278.0 L 677.5 279.0 L 678.0 279.5 L 678.5 280.0 L 679.0 280.5 L 679.5 281.0 L 679.5 282.0 L 680.0 282.5 L 680.5 283.0 L 680.5 284.0 L 681.0 284.5 L 681.5 285.0 L 682.0 285.5 L 682.5 286.0 L 682.5 287.0 L 683.0 287.5 L 683.5 288.0 L 683.5 289.0 L 684.0 289.5 L 684.5 290.0 L 684.5 291.0 L 685.0 291.5 L 685.5 292.0 L 686.0 292.5 L 686.5 293.0 L 686.5 294.0 L 687.0 294.5 L 687.5 295.0 L 688.0 295.5 L 688.5 296.0 L 688.5 297.0 L 689.0 297.5 L 689.5 298.0 L 689.5 299.0 L 690.0 299.5 L 690.5 300.0 L 691.0 300.5 L 691.5 301.0 L 691.5 302.0 L 692.0 302.5 L 692.5 303.0 L 692.5 304.0 L 693.0 304.5 L 693.5 305.0 L 694.0 305.5 L 694.5 306.0 L 694.5 307.0 L 695.0 307.5 L 695.5 308.0 L 695.5 309.0 L 696.0 309.5 L 696.5 310.0 L 697.0 310.5 L 697.5 311.0 L 697.5 312.0 L 698.0 312.5 L 698.5 313.0 L 698.5 314.0 L 699.0 314.5 L 699.5 315.0 L 700.0 315.5 L 700.5 316.0 L 700.5 317.0 L 701.0 317.5 L 701.5 318.0 L 701.5 319.0 L 702.0 319.5 L 702.5 320.0 L 703.0 320.5 L 703.5 321.0 L 703.5 322.0 L 704.0 322.5 L 704.5 323.0 L 705.0 323.5 L 705.5 324.0 L 705.5 325.0 L 706.0 325.5 L 706.5 326.0 L 706.5 327.0 L 707.0 327.5 L 707.5 328.0 L 708.0 328.5 L 708.5 329.0 L 708.5 330.0 L 709.0 330.5 L 709.5 331.0 L 709.5 332.0 L 710.0 332.5 L 710.5 333.0 L 711.0 333.5 L 711.5 334.0 L 711.5 335.0 L 712.0 335.5 L 712.5 336.0 L 712.5 337.0 L 713.0 337.5 L 713.5 338.0 L 714.0 338.5 L 714.5 339.0 L 714.5 340.0 L 715.0 340.5 L 715.5 341.0 L 715.5 342.0 L 716.0 342.5 L 716.5 343.0 L 717.0 343.5 L 717.5 344.0 L 717.5 345.0 L 718.0 345.5 L 718.5 346.0 L 718.5 347.0 L 719.0 347.5 L 719.5 348.0 L 720.0 348.5 L 720.5 349.0 L 720.5 350.0 L 721.0 350.5 L 721.5 351.0 L 721.5 352.0 L 722.0 352.5 L 722.5 353.0 L 723.0 353.5 L 723.5 354.0 L 723.5 355.0 L 724.0 355.5 L 724.5 356.0 L 724.5 357.0 L 725.0 357.5 L 725.5 358.0 L 726.0 358.5 L 726.5 359.0 L 726.5 360.0 L 727.0 360.5 L 727.5 361.0 L 728.0 361.5 L 728.5 362.0 L 728.5 363.0 L 729.0 363.5 L 729.5 364.0 L 729.5 365.0 L 730.0 365.5 L 730.5 366.0 L 731.0 366.5 L 731.5 367.0 L 731.5 368.0 L 732.0 368.5 L 732.5 369.0 L 732.5 370.0 L 733.0 370.5 L 733.5 371.0 L 734.0 371.5 L 734.5 372.0 L 734.5 373.0 L 735.0 373.5 L 735.5 374.0 L 735.5 375.0 L 736.0 375.5 L 736.5 376.0 L 737.0 376.5 L 737.5 377.0 L 737.5 378.0 L 738.0 378.5 L 738.5 379.0 L 739.0 379.5 L 739.5 380.0 L 739.5 381.0 L 740.0 381.5 L 740.5 382.0 L 740.5 383.0 L 741.0 383.5 L 741.5 384.0 L 742.0 384.5 L 742.5 385.0 L 742.5 386.0 L 743.0 386.5 L 743.5 387.0 L 743.5 388.0 L 744.0 388.5 L 744.5 389.0 L 745.0 389.5 L 745.5 390.0 L 745.5 391.0 L 746.0 391.5 L 746.5 392.0 L 746.5 393.0 L 747.0 393.5 L 747.5 394.0 L 748.0 394.5 L 748.5 395.0 L 748.5 396.0 L 749.0 396.5 L 749.5 397.0 L 749.5 398.0 L 750.0 398.5 L 750.5 399.0 L 751.0 399.5 L 751.5 400.0 L 751.5 401.0 L 752.0 401.5 L 752.5 402.0 L 753.0 402.5 L 753.5 403.0 L 753.5 404.0 L 754.0 404.5 L 754.5 405.0 L 754.5 406.0 L 755.0 406.5 L 755.5 407.0 L 756.0 407.5 L 756.5 408.0 L 756.5 409.0 L 757.0 409.5 L 757.5 410.0 L 757.5 411.0 L 758.0 411.5 L 758.5 412.0 L 759.0 412.5 L 759.5 413.0 L 759.5 414.0 L 760.0 414.5 L 760.5 415.0 L 760.5 416.0 L 761.0 416.5 L 761.5 417.0 L 762.0 417.5 L 762.5 418.0 L 762.5 419.0 L 763.0 419.5 L 763.5 420.0 L 764.0 420.5 L 764.5 421.0 L 764.5 422.0 L 765.0 422.5 L 765.5 423.0 L 765.5 424.0 L 766.0 424.5 L 766.5 425.0 L 766.5 426.0 L 767.0 426.5 L 767.5 427.0 L 768.0 427.5 L 768.5 428.0 L 768.5 429.0 L 769.0 429.5 L 769.5 430.0 L 770.0 430.5 L 770.5 431.0 L 770.5 432.0 L 771.0 432.5 L 771.5 433.0 L 771.5 434.0 L 772.0 434.5 L 772.5 435.0 L 773.0 435.5 L 773.5 436.0 L 773.5 437.0 L 774.0 437.5 L 774.5 438.0 L 774.5 439.0 L 775.0 439.5 L 775.5 440.0 L 776.0 440.5 L 776.5 441.0 L 776.5 442.0 L 777.0 442.5 L 777.5 443.0 L 777.5 444.0 L 778.0 444.5 L 778.5 445.0 L 779.0 445.5 L 779.5 446.0 L 779.5 447.0 L 780.0 447.5 L 780.5 448.0 L 781.0 448.5 L 781.5 449.0 L 781.5 450.0 L 782.0 450.5 L 782.5 451.0 L 782.5 452.0 L 783.0 452.5 L 783.5 453.0 L 784.0 453.5 L 784.5 454.0 L 784.5 455.0 L 785.0 455.5 L 785.5 456.0 L 785.5 457.0 L 786.0 457.5 L 786.5 458.0 L 787.0 458.5 L 787.5 459.0 L 787.5 460.0 L 788.0 460.5 L 788.5 461.0 L 788.5 462.0 L 789.0 462.5 L 789.5 463.0 L 790.0 463.5 L 790.5 464.0 L 790.5 465.0 L 791.0 465.5 L 791.5 466.0 L 791.5 467.0 L 792.0 467.5 L 792.5 468.0 L 793.0 468.5 L 793.5 469.0 L 793.5 470.0 L 794.0 470.5 L 794.5 471.0 L 794.5 472.0 L 795.0 472.5 L 795.5 473.0 L 796.0 473.5 L 796.5 474.0 L 796.5 475.0 L 797.0 475.5 L 797.5 476.0 L 797.5 477.0 L 798.0 477.5 L 798.5 478.0 L 799.0 478.5 L 799.5 479.0 L 799.5 480.0 L 800.0 480.5 L 800.5 481.0 L 800.5 482.0 L 801.0 482.5 L 801.5 483.0 L 802.0 483.5 L 802.5 484.0 L 802.5 485.0 L 803.0 485.5 L 803.5 486.0 L 803.5 487.0 L 804.0 487.5 L 804.5 488.0 L 805.0 488.5 L 805.5 489.0 L 805.5 490.0 L 806.0 490.5 L 806.5 491.0 L 806.5 492.0 L 807.0 492.5 L 807.5 493.0 L 807.5 494.0 L 808.0 494.5 L 808.5 495.0 L 808.5 496.0 L 809.0 496.5 L 809.5 497.0 L 809.5 498.0 L 809.5 499.0 L 810.0 499.5 L 810.5 500.0 L 810.5 501.0 L 810.5 502.0 L 810.5 503.0 L 811.0 503.5 L 811.5 504.0 L 811.5 505.0 L 811.5 506.0 L 811.5 507.0 L 811.5 508.0 L 811.5 509.0 L 811.5 510.0 L 811.5 511.0 L 811.5 512.0 L 811.5 513.0 L 811.5 514.0 L 811.5 515.0 L 811.5 516.0 L 811.5 517.0 L 811.0 517.5 L 810.5 518.0 L 810.5 519.0 L 810.5 520.0 L 810.5 521.0 L 810.0 521.5 L 809.5 522.0 L 809.5 523.0 L 809.5 524.0 L 809.0 524.5 L 808.5 525.0 L 808.5 526.0 L 808.0 526.5 L 807.5 527.0 L 807.5 528.0 L 807.0 528.5 L 806.5 529.0 L 806.5 530.0 L 806.0 530.5 L 805.5 531.0 L 805.0 531.5 L 804.5 532.0 L 804.5 533.0 L 804.0 533.5 L 803.5 534.0 L 803.5 535.0 L 803.0 535.5 L 802.5 536.0 L 802.0 536.5 L 801.5 537.0 L 801.5 538.0 L 801.0 538.5 L 800.5 539.0 L 800.5 540.0 L 800.0 540.5 L 799.5 541.0 L 799.0 541.5 L 798.5 542.0 L 798.5 543.0 L 798.0 543.5 L 797.5 544.0 L 797.0 544.5 L 796.5 545.0 L 796.5 546.0 L 796.0 546.5 L 795.5 547.0 L 795.5 548.0 L 795.0 548.5 L 794.5 549.0 L 794.0 549.5 L 793.5 550.0 L 793.5 551.0 L 793.0 551.5 L 792.5 552.0 L 792.5 553.0 L 792.0 553.5 L 791.5 554.0 L 791.0 554.5 L 790.5 555.0 L 790.5 556.0 L 790.0 556.5 L 789.5 557.0 L 789.0 557.5 L 788.5 558.0 L 788.5 559.0 L 788.0 559.5 L 787.5 560.0 L 787.5 561.0 L 787.0 561.5 L 786.5 562.0 L 786.0 562.5 L 785.5 563.0 L 785.5 564.0 L 785.0 564.5 L 784.5 565.0 L 784.5 566.0 L 784.0 566.5 L 783.5 567.0 L 783.0 567.5 L 782.5 568.0 L 782.5 569.0 L 782.0 569.5 L 781.5 570.0 L 781.0 570.5 L 780.5 571.0 L 780.5 572.0 L 780.0 572.5 L 779.5 573.0 L 779.5 574.0 L 779.0 574.5 L 778.5 575.0 L 778.0 575.5 L 777.5 576.0 L 777.5 577.0 L 777.0 577.5 L 776.5 578.0 L 776.0 578.5 L 775.5 579.0 L 775.5 580.0 L 775.0 580.5 L 774.5 581.0 L 774.5 582.0 L 774.0 582.5 L 773.5 583.0 L 773.0 583.5 L 772.5 584.0 L 772.5 585.0 L 772.0 585.5 L 771.5 586.0 L 771.5 587.0 L 771.0 587.5 L 770.5 588.0 L 770.0 588.5 L 769.5 589.0 L 769.5 590.0 L 769.0 590.5 L 768.5 591.0 L 768.5 592.0 L 768.0 592.5 L 767.5 593.0 L 767.0 593.5 L 766.5 594.0 L 766.5 595.0 L 766.0 595.5 L 765.5 596.0 L 765.5 597.0 L 765.0 597.5 L 764.5 598.0 L 764.0 598.5 L 763.5 599.0 L 763.5 600.0 L 763.0 600.5 L 762.5 601.0 L 762.0 601.5 L 761.5 602.0 L 761.5 603.0 L 761.0 603.5 L 760.5 604.0 L 760.5 605.0 L 760.0 605.5 L 759.5 606.0 L 759.0 606.5 L 758.5 607.0 L 758.5 608.0 L 758.0 608.5 L 757.5 609.0 L 757.5 610.0 L 757.0 610.5 L 756.5 611.0 L 756.0 611.5 L 755.5 612.0 L 755.5 613.0 L 755.0 613.5 L 754.5 614.0 L 754.5 615.0 L 754.0 615.5 L 753.5 616.0 L 753.0 616.5 L 752.5 617.0 L 752.5 618.0 L 752.0 618.5 L 751.5 619.0 L 751.5 620.0 L 751.0 620.5 L 750.5 621.0 L 750.0 621.5 L 749.5 622.0 L 749.5 623.0 L 749.0 623.5 L 748.5 624.0 L 748.5 625.0 L 748.0 625.5 L 747.5 626.0 L 747.0 626.5 L 746.5 627.0 L 746.5 628.0 L 746.0 628.5 L 745.5 629.0 L 745.5 630.0 L 745.0 630.5 L 744.5 631.0 L 744.0 631.5 L 743.5 632.0 L 743.5 633.0 L 743.0 633.5 L 742.5 634.0 L 742.5 635.0 L 742.0 635.5 L 741.5 636.0 L 741.0 636.5 L 740.5 637.0 L 740.5 638.0 L 740.0 638.5 L 739.5 639.0 L 739.0 639.5 L 738.5 640.0 L 738.5 641.0 L 738.0 641.5 L 737.5 642.0 L 737.5 643.0 L 737.0 643.5 L 736.5 644.0 L 736.0 644.5 L 735.5 645.0 L 735.5 646.0 L 735.0 646.5 L 734.5 647.0 L 734.0 647.5 L 733.5 648.0 L 733.5 649.0 L 733.0 649.5 L 732.5 650.0 L 732.5 651.0 L 732.0 651.5 L 731.5 652.0 L 731.5 653.0 L 731.0 653.5 L 730.5 654.0 L 730.0 654.5 L 729.5 655.0 L 729.5 656.0 L 729.0 656.5 L 728.5 657.0 L 728.0 657.5 L 727.5 658.0 L 727.5 659.0 L 727.0 659.5 L 726.5 660.0 L 726.5 661.0 L 726.0 661.5 L 725.5 662.0 L 725.0 662.5 L 724.5 663.0 L 724.5 664.0 L 724.0 664.5 L 723.5 665.0 L 723.5 666.0 L 723.0 666.5 L 722.5 667.0 L 722.0 667.5 L 721.5 668.0 L 721.5 669.0 L 721.0 669.5 L 720.5 670.0 L 720.5 671.0 L 720.0 671.5 L 719.5 672.0 L 719.0 672.5 L 718.5 673.0 L 718.5 674.0 L 718.0 674.5 L 717.5 675.0 L 717.5 676.0 L 717.0 676.5 L 716.5 677.0 L 716.0 677.5 L 715.5 678.0 L 715.5 679.0 L 715.0 679.5 L 714.5 680.0 L 714.0 680.5 L 713.5 681.0 L 713.5 682.0 L 713.0 682.5 L 712.5 683.0 L 712.5 684.0 L 712.0 684.5 L 711.5 685.0 L 711.0 685.5 L 710.5 686.0 L 710.5 687.0 L 710.0 687.5 L 709.5 688.0 L 709.5 689.0 L 709.0 689.5 L 708.5 690.0 L 708.0 690.5 L 707.5 691.0 L 707.5 692.0 L 707.0 692.5 L 706.5 693.0 L 706.5 694.0 L 706.0 694.5 L 705.5 695.0 L 705.0 695.5 L 704.5 696.0 L 704.5 697.0 L 704.0 697.5 L 703.5 698.0 L 703.0 698.5 L 702.5 699.0 L 702.5 700.0 L 702.0 700.5 L 701.5 701.0 L 701.5 702.0 L 701.0 702.5 L 700.5 703.0 L 700.0 703.5 L 699.5 704.0 L 699.5 705.0 L 699.0 705.5 L 698.5 706.0 L 698.5 707.0 L 698.0 707.5 L 697.5 708.0 L 697.0 708.5 L 696.5 709.0 L 696.5 710.0 L 696.0 710.5 L 695.5 711.0 L 695.0 711.5 L 694.5 712.0 L 694.5 713.0 L 694.0 713.5 L 693.5 714.0 L 693.5 715.0 L 693.0 715.5 L 692.5 716.0 L 692.0 716.5 L 691.5 717.0 L 691.5 718.0 L 691.0 718.5 L 690.5 719.0 L 690.0 719.5 L 689.5 720.0 L 689.5 721.0 L 689.0 721.5 L 688.5 722.0 L 688.5 723.0 L 688.0 723.5 L 687.5 724.0 L 687.0 724.5 L 686.5 725.0 L 686.5 726.0 L 686.0 726.5 L 685.5 727.0 L 685.5 728.0 L 685.0 728.5 L 684.5 729.0 L 684.0 729.5 L 683.5 730.0 L 683.5 731.0 L 683.0 731.5 L 682.5 732.0 L 682.0 732.5 L 681.5 733.0 L 681.5 734.0 L 681.0 734.5 L 680.5 735.0 L 680.5 736.0 L 680.0 736.5 L 679.5 737.0 L 679.0 737.5 L 678.5 738.0 L 678.5 739.0 L 678.0 739.5 L 677.5 740.0 L 677.0 740.5 L 676.5 741.0 L 676.5 742.0 L 676.0 742.5 L 675.5 743.0 L 675.0 743.5 L 674.5 744.0 L 674.0 744.5 L 673.5 745.0 L 673.5 746.0 L 673.0 746.5 L 672.5 747.0 L 672.0 747.5 L 671.5 748.0 L 671.0 748.5 L 670.5 749.0 L 670.0 749.5 L 669.5 750.0 L 669.0 750.5 L 668.0 750.5 L 667.5 751.0 L 667.0 751.5 L 666.5 752.0 L 666.0 752.5 L 665.0 752.5 L 664.5 753.0 L 664.0 753.5 L 663.5 754.0 L 663.0 754.5 L 662.0 754.5 L 661.5 755.0 L 661.0 755.5 L 660.0 755.5 L 659.0 755.5 L 658.5 756.0 L 658.0 756.5 L 657.0 756.5 L 656.0 756.5 L 655.5 757.0 L 655.0 757.5 L 654.0 757.5 L 653.0 757.5 L 652.5 758.0 L 652.0 758.5 L 651.0 758.5 L 650.0 758.5 L 649.0 758.5 L 648.0 758.5 L 647.5 759.0 L 647.0 759.5 Z" fill="turquoise" stroke="none" /><text fill="black" font-family="Geist, sans-serif" font-size="600px" x="1044" y="768.0">Acme</text></svg>